<?xml version="1.0" encoding="UTF-8"?>
<svg version="1.1" xmlns="http://www.w3.org/2000/svg" width="818" height="305">
<path d="M0 0 C8.89551378 7.29854469 16.73979723 17.18559906 18 29 C18.99902189 42.61167321 16.86777866 54.31742013 8 65 C0.19220331 73.50804751 -11.60368495 79.77598022 -23.234375 80.30078125 C-38.33411865 80.49819605 -50.87287691 78.10532716 -62.58203125 67.70703125 C-72.6652597 57.18903673 -75.43651267 46.38548173 -75.20703125 32.265625 C-74.80442893 20.95324093 -69.52499391 10.95515049 -61.3125 3.1875 C-43.97707596 -10.78834574 -18.73755623 -12.48172675 0 0 Z M-48 18 C-52.95064958 26.01594816 -55.21870879 33.2144773 -53.5390625 42.56640625 C-51.78289675 49.3328096 -48.98645182 54.52356781 -42.9375 58.28125 C-35.70149861 62.00566248 -28.47784119 63.54589383 -20.453125 61.28125 C-15.70643367 59.30611669 -12.373213 56.95147809 -9 53 C-8.278125 52.21625 -7.55625 51.4325 -6.8125 50.625 C-2.75195248 44.74420704 -2.15200734 37.94940324 -3 31 C-5.20837881 23.16822359 -8.30705592 17.41729596 -15.4375 13.25 C-25.8104856 7.54936792 -39.71076543 9.23650574 -48 18 Z " fill="#27A66C" transform="translate(649,96)"/>
<path d="M0 0 C2.79192205 -0.05380578 5.5828141 -0.09357669 8.375 -0.125 C9.1690625 -0.14175781 9.963125 -0.15851563 10.78125 -0.17578125 C12.85492015 -0.19335473 14.92883241 -0.10335168 17 0 C19.53562284 2.53562284 19.23544304 4.12205742 19.24884033 7.57958984 C19.2380545 8.74699707 19.2380545 8.74699707 19.22705078 9.93798828 C19.22734283 10.75758026 19.22763489 11.57717224 19.22793579 12.42160034 C19.22653944 15.13794443 19.21096401 17.85401618 19.1953125 20.5703125 C19.19158345 22.45075328 19.18873597 24.33119599 19.18673706 26.2116394 C19.17909207 31.16665998 19.15943619 36.12156374 19.1373291 41.07653809 C19.11688928 46.1304364 19.10773934 51.18435354 19.09765625 56.23828125 C19.07619109 66.15890555 19.04204474 76.07944307 19 86 C15.6717269 87.66413655 12.00266027 86.81867406 8.375 86.5625 C7.57320313 86.51029297 6.77140625 86.45808594 5.9453125 86.40429688 C3.96320897 86.27451629 1.98155501 86.13790265 0 86 C0 84.68 0 83.36 0 82 C-0.54269531 82.27714844 -1.08539063 82.55429688 -1.64453125 82.83984375 C-2.71767578 83.38318359 -2.71767578 83.38318359 -3.8125 83.9375 C-4.87404297 84.47697266 -4.87404297 84.47697266 -5.95703125 85.02734375 C-12.79448155 88.28264991 -21.66800528 87.99881301 -28.96484375 86.31640625 C-36.40313207 83.55426837 -42.488775 79.16533351 -46.15625 71.97265625 C-50.40778576 62.03272311 -51.54455853 52.81022585 -48.03125 42.44921875 C-44.06073603 33.01924808 -38.11366301 27.58654974 -28.75 23.625 C-18.58274399 21.93045733 -9.73173216 22.17884523 -1 28 C-1.00523682 27.22285645 -1.01047363 26.44571289 -1.01586914 25.64501953 C-1.03660156 22.13835451 -1.04964821 18.63170237 -1.0625 15.125 C-1.07087891 13.90167969 -1.07925781 12.67835937 -1.08789062 11.41796875 C-1.09111328 10.25136719 -1.09433594 9.08476563 -1.09765625 7.8828125 C-1.10289307 6.80402832 -1.10812988 5.72524414 -1.11352539 4.61376953 C-1 2 -1 2 0 0 Z M-27 44 C-30.19454651 48.96807061 -30.40366237 53.93056105 -29.56640625 59.66796875 C-28.71094084 63.19012632 -27.46137096 65.34431028 -25 68 C-20.27956712 70.86928273 -16.49514238 71.4748216 -11.1484375 70.64453125 C-6.99159586 69.39747876 -4.1874076 66.88516259 -1.86328125 63.1953125 C0.10626229 58.18679002 -0.11622923 51.87225499 -1.6875 46.765625 C-3.21142729 43.79396678 -4.99573932 42.00307165 -7.6875 40.0625 C-15.13138832 37.67483771 -21.53970251 37.93464252 -27 44 Z " fill="#8952F9" transform="translate(378,83)"/>
<path d="M0 0 C1.41796875 1.265625 1.41796875 1.265625 3.16796875 3.640625 C2.95794664 7.77981083 0.34035714 9.77715101 -2.58203125 12.453125 C-3.443125 13.26394531 -4.30421875 14.07476562 -5.19140625 14.91015625 C-7.83203125 16.640625 -7.83203125 16.640625 -10.50390625 16.5234375 C-13.45151887 15.40571862 -15.4084964 13.64004125 -17.83203125 11.640625 C-24.5212555 8.11020109 -32.17319137 8.12207054 -39.40234375 9.77734375 C-45.03798292 11.77971715 -49.61013013 15.63276755 -52.83203125 20.640625 C-55.85422323 27.88171584 -56.12763785 36.59008669 -54.1796875 44.18359375 C-51.37578109 50.40513716 -46.3942051 54.13346391 -40.64453125 57.515625 C-32.55781166 59.90187013 -25.29316687 59.45056659 -17.83203125 55.640625 C-16.84203125 55.640625 -15.85203125 55.640625 -14.83203125 55.640625 C-14.46078125 54.7125 -14.46078125 54.7125 -14.08203125 53.765625 C-12.83203125 51.640625 -12.83203125 51.640625 -8.83203125 49.640625 C-4.87203125 53.270625 -0.91203125 56.900625 3.16796875 60.640625 C1.65566488 66.68984048 -2.67143764 69.62652123 -7.82421875 72.91015625 C-19.06862908 78.93878588 -33.56112615 79.49492683 -45.83203125 76.453125 C-57.4436974 72.65262492 -67.62193263 65.58152673 -73.33203125 54.578125 C-78.87529736 42.14492361 -79.77341472 29.5748439 -74.83203125 16.640625 C-72.25208221 11.0285709 -69.08397689 6.12240554 -64.83203125 1.640625 C-64.17203125 1.640625 -63.51203125 1.640625 -62.83203125 1.640625 C-62.83203125 0.980625 -62.83203125 0.320625 -62.83203125 -0.359375 C-43.87853359 -14.30565431 -18.84600353 -13.98381498 0 0 Z " fill="#27A66C" transform="translate(563.83203125,98.359375)"/>
<path d="M0 0 C6.84669655 4.83523768 11.54358071 9.92007995 14 18 C14.19207031 18.6290625 14.38414062 19.258125 14.58203125 19.90625 C15.10605934 22.5312879 15.13214398 25.01207976 15.125 27.6875 C15.12886719 29.14736328 15.12886719 29.14736328 15.1328125 30.63671875 C15 33 15 33 14 34 C12.58774954 34.0928726 11.17091066 34.11746772 9.75561523 34.11352539 C8.85475693 34.11344986 7.95389862 34.11337433 7.02574158 34.11329651 C6.04658279 34.10813522 5.06742401 34.10297394 4.05859375 34.09765625 C3.06118668 34.0962413 2.0637796 34.09482635 1.03614807 34.09336853 C-2.16343124 34.08775114 -5.36294169 34.07519571 -8.5625 34.0625 C-10.72591045 34.05748724 -12.88932199 34.05292395 -15.05273438 34.04882812 C-20.36851325 34.03777607 -25.68425171 34.02102104 -31 34 C-27.20266413 39.96134936 -27.20266413 39.96134936 -21 43 C-14.13128088 43.78361444 -8.59990048 43.60782992 -2.71875 39.77734375 C-1 39 -1 39 0.98046875 39.140625 C3.58796236 40.25019675 4.94337782 41.69153821 6.8125 43.8125 C7.75029297 44.84310547 7.75029297 44.84310547 8.70703125 45.89453125 C10 48 10 48 9.83203125 50.1328125 C8.03275714 54.17062012 4.3245497 55.84352068 0.5 57.6875 C-9.79984494 61.54994185 -22.4499427 61.59454395 -32.6015625 57.265625 C-40.07090371 53.32414853 -46.60808277 48.02587834 -49.8125 40 C-52.38310591 31.23925686 -52.23893148 21.53805606 -48.30859375 13.2421875 C-43.10285432 4.32250263 -35.83624838 -0.47018753 -26.015625 -3.640625 C-17.00375961 -5.2473917 -8.05095805 -4.43040887 0 0 Z M-29.8125 15.9375 C-31.33264296 18.18109346 -31.33264296 18.18109346 -31 22 C-22.09 22 -13.18 22 -4 22 C-5.08089503 16.59552487 -6.01919841 15.49533798 -10 12 C-16.75542427 8.62228787 -24.88872164 10.67415072 -29.8125 15.9375 Z " fill="#8952FA" transform="translate(458,110)"/>
<path d="M0 0 C6.04231302 4.48711853 8.23025847 10.87812947 9.50390625 18.08984375 C10.17823289 24.14171192 10.10007401 30.24151266 10.09936523 36.32348633 C10.10156829 38.44307058 10.11982432 40.56214691 10.13867188 42.68164062 C10.14160372 44.04166491 10.14358991 45.40169163 10.14453125 46.76171875 C10.14864014 47.98334717 10.15274902 49.20497559 10.15698242 50.46362305 C9.9140625 53.75 9.9140625 53.75 7.9140625 58.75 C2.3040625 58.42 -3.3059375 58.09 -9.0859375 57.75 C-9.5809375 55.77 -9.5809375 55.77 -10.0859375 53.75 C-10.6221875 54.20375 -11.1584375 54.6575 -11.7109375 55.125 C-18.45179822 59.73716786 -26.23364143 59.46304482 -34.0859375 58.75 C-39.87324553 57.22049716 -44.39376038 54.52811156 -48.0859375 49.75 C-51.14954287 44.18524806 -51.49776558 39.90153665 -50.0859375 33.75 C-47.87294763 28.74165451 -44.13062218 25.1688097 -39.1940918 22.8684082 C-32.89301272 20.59878697 -27.17479907 20.39082356 -20.5234375 20.5625 C-19.01040039 20.58280273 -19.01040039 20.58280273 -17.46679688 20.60351562 C-15.00593129 20.63850424 -12.54623415 20.68758842 -10.0859375 20.75 C-11.97162004 15.57699555 -11.97162004 15.57699555 -15.7734375 11.8125 C-22.69094776 9.59367595 -27.99188719 10.75570531 -34.69140625 12.99609375 C-37.0859375 13.75 -37.0859375 13.75 -42.0859375 14.75 C-44.0659375 10.79 -46.0459375 6.83 -48.0859375 2.75 C-34.89203296 -7.80512363 -14.44791233 -8.65792499 0 0 Z M-31.0859375 35.75 C-31.8359375 38.75 -31.8359375 38.75 -31.0859375 41.75 C-28.19749361 44.53388484 -26.11544223 45.16167493 -22.1484375 45.125 C-18.01594647 44.997191 -15.33281676 44.48955438 -12.0859375 41.75 C-9.79580097 38.3147952 -9.90750777 36.764669 -10.0859375 32.75 C-12.64908249 32.66867813 -15.20962168 32.60935825 -17.7734375 32.5625 C-18.8552832 32.52479492 -18.8552832 32.52479492 -19.95898438 32.48632812 C-24.51878013 32.42386517 -27.53237306 32.79558305 -31.0859375 35.75 Z " fill="#8952FA" transform="translate(309.0859375,111.25)"/>
<path d="M0 0 C1.24132187 0.00222061 2.48264374 0.00444122 3.76158142 0.00672913 C4.44447739 0.0065831 5.12737335 0.00643707 5.83096313 0.00628662 C8.09815092 0.00698575 10.36525752 0.01477811 12.63243103 0.02259827 C14.20041865 0.02446245 15.76840685 0.02588635 17.33639526 0.02688599 C21.47103981 0.03071117 25.60564944 0.04054146 29.74028015 0.05158997 C33.95627876 0.06180407 38.172283 0.0663836 42.38829041 0.07142639 C50.66630125 0.08216373 58.94428368 0.09924015 67.22227478 0.12025452 C67.24912157 2.76615466 67.26903835 5.41178547 67.28477478 8.05775452 C67.29315369 8.81250061 67.30153259 9.5672467 67.31016541 10.34486389 C67.31879919 12.27019765 67.27451811 14.19561033 67.22227478 16.12025452 C66.22227478 17.12025452 66.22227478 17.12025452 63.90562439 17.23377991 C62.90539246 17.22854309 61.90516052 17.22330627 60.87461853 17.21791077 C59.79502869 17.21468811 58.71543884 17.21146545 57.60313416 17.20814514 C56.46682556 17.19976624 55.33051697 17.19138733 54.15977478 17.18275452 C53.019599 17.1782428 51.87942322 17.17373108 50.70469666 17.16908264 C47.87717127 17.15725199 45.04974838 17.14076861 42.22227478 17.12025452 C42.22449539 17.9073027 42.226716 18.69435089 42.22900391 19.50524902 C42.24900591 26.90715782 42.26424844 34.30905359 42.27408695 41.71098232 C42.27931498 45.51677029 42.28641116 49.322536 42.29771423 53.12831116 C42.30854598 56.79817996 42.31455222 60.4680273 42.31715202 64.13791084 C42.31900575 65.54100444 42.32262538 66.94409681 42.32800484 68.34718132 C42.33521897 70.30595132 42.33568287 72.26474272 42.33580017 74.223526 C42.33802078 75.34049362 42.34024139 76.45746124 42.3425293 77.60827637 C42.22227478 80.12025452 42.22227478 80.12025452 41.22227478 81.12025452 C39.89183853 81.21862662 38.55634134 81.25104044 37.22227478 81.25306702 C36.41789978 81.25435608 35.61352478 81.25564514 34.78477478 81.25697327 C33.93914978 81.25310608 33.09352478 81.24923889 32.22227478 81.24525452 C31.37664978 81.2491217 30.53102478 81.25298889 29.65977478 81.25697327 C28.85539978 81.2556842 28.05102478 81.25439514 27.22227478 81.25306702 C26.47977478 81.25193909 25.73727478 81.25081116 24.97227478 81.24964905 C23.22227478 81.12025452 23.22227478 81.12025452 22.22227478 80.12025452 C21.0468443 72.36009815 21.08723051 64.499284 21.12461853 56.67103577 C21.12603348 55.53240585 21.12744843 54.39377594 21.12890625 53.22064209 C21.13445269 49.62465154 21.14699489 46.02872589 21.15977478 42.43275452 C21.16479671 39.9776773 21.1693584 37.52259909 21.17344666 35.06752014 C21.1844045 29.08507655 21.20108831 23.10267017 21.22227478 17.12025452 C20.13958313 17.12810974 20.13958313 17.12810974 19.03501892 17.13612366 C15.78494629 17.1568281 12.5348875 17.1698937 9.28477478 17.18275452 C7.58031189 17.19532288 7.58031189 17.19532288 5.84141541 17.20814514 C4.76182556 17.2113678 3.68223572 17.21459045 2.56993103 17.21791077 C1.06958313 17.22576599 1.06958313 17.22576599 -0.46107483 17.23377991 C-2.77772522 17.12025452 -2.77772522 17.12025452 -3.77772522 16.12025452 C-3.87747554 13.60889347 -3.91654705 11.13122037 -3.90272522 8.62025452 C-3.90659241 7.91771545 -3.91045959 7.21517639 -3.91444397 6.49134827 C-3.90226206 0.16893847 -3.90226206 0.16893847 0 0 Z " fill="#8A52FA" transform="translate(138.77772521972656,87.87974548339844)"/>
<path d="M0 0 C1 1 1 1 1.09765625 4.59765625 C1.0909822 6.08596867 1.07902183 7.57426432 1.0625 9.0625 C1.05798828 9.82111328 1.05347656 10.57972656 1.04882812 11.36132812 C1.0370068 13.24091871 1.01907078 15.12046899 1 17 C-1.25558738 18.12779369 -2.74650832 18.16348264 -5.25 18.3125 C-9.76347671 18.79219318 -12.55832126 19.8940948 -16 23 C-17.95257505 27.56831254 -18.31890453 31.86529752 -18.37890625 36.76953125 C-18.39590073 37.49113937 -18.4128952 38.2127475 -18.43040466 38.95622253 C-18.4831741 41.24156153 -18.52370357 43.52688453 -18.5625 45.8125 C-18.60643112 48.1158829 -18.65303774 50.41912664 -18.70530701 52.72233582 C-18.73727532 54.15119373 -18.76416205 55.58017594 -18.78553772 57.00923157 C-18.88817612 61.88817612 -18.88817612 61.88817612 -20 63 C-22.05468694 63.29100716 -24.12011784 63.50762607 -26.1875 63.6875 C-27.31542969 63.79449219 -28.44335938 63.90148437 -29.60546875 64.01171875 C-33.18278923 63.99936897 -35.65919892 63.19746903 -39 62 C-39.02312792 54.19424805 -39.04091738 46.38850405 -39.05181217 38.58272648 C-39.05704002 34.9585404 -39.06413587 31.3343777 -39.07543945 27.71020508 C-39.08627184 24.21540025 -39.09227758 20.72061796 -39.09487724 17.22579765 C-39.09763551 15.23760611 -39.10544688 13.24942369 -39.11329651 11.26124573 C-39.11337204 10.06007614 -39.11344757 8.85890656 -39.11352539 7.62133789 C-39.115746 6.55766495 -39.11796661 5.493992 -39.12025452 4.39808655 C-39 2 -39 2 -38 1 C-35.13732433 0.92674832 -32.299281 0.90761795 -29.4375 0.9375 C-28.63119141 0.94201172 -27.82488281 0.94652344 -26.99414062 0.95117188 C-24.99606244 0.96299482 -22.99802217 0.98093086 -21 1 C-20.34 2.65 -19.68 4.3 -19 6 C-18.29875 5.38125 -17.5975 4.7625 -16.875 4.125 C-11.40517864 0.08208856 -6.58526868 -0.33484417 0 0 Z " fill="#8A52FA" transform="translate(252,106)"/>
<path d="M0 0 C1.24132187 0.00222061 2.48264374 0.00444122 3.76158142 0.00672913 C4.44447739 0.0065831 5.12737335 0.00643707 5.83096313 0.00628662 C8.09815092 0.00698575 10.36525752 0.01477811 12.63243103 0.02259827 C14.20041865 0.02446245 15.76840685 0.02588635 17.33639526 0.02688599 C21.47103981 0.03071117 25.60564944 0.04054146 29.74028015 0.05158997 C33.95627876 0.06180407 38.172283 0.0663836 42.38829041 0.07142639 C50.66630125 0.08216373 58.94428368 0.09924015 67.22227478 0.12025452 C67.24912157 2.76615466 67.26903835 5.41178547 67.28477478 8.05775452 C67.29315369 8.81250061 67.30153259 9.5672467 67.31016541 10.34486389 C67.31879919 12.27019765 67.27451811 14.19561033 67.22227478 16.12025452 C66.22227478 17.12025452 66.22227478 17.12025452 63.90562439 17.23377991 C62.90539246 17.22854309 61.90516052 17.22330627 60.87461853 17.21791077 C59.79502869 17.21468811 58.71543884 17.21146545 57.60313416 17.20814514 C56.46682556 17.19976624 55.33051697 17.19138733 54.15977478 17.18275452 C53.019599 17.1782428 51.87942322 17.17373108 50.70469666 17.16908264 C47.87717127 17.15725199 45.04974838 17.14076861 42.22227478 17.12025452 C42.22449539 17.9073027 42.226716 18.69435089 42.22900391 19.50524902 C42.24900591 26.90715782 42.26424844 34.30905359 42.27408695 41.71098232 C42.27931498 45.51677029 42.28641116 49.322536 42.29771423 53.12831116 C42.30854598 56.79817996 42.31455222 60.4680273 42.31715202 64.13791084 C42.31900575 65.54100444 42.32262538 66.94409681 42.32800484 68.34718132 C42.33521897 70.30595132 42.33568287 72.26474272 42.33580017 74.223526 C42.33802078 75.34049362 42.34024139 76.45746124 42.3425293 77.60827637 C42.22227478 80.12025452 42.22227478 80.12025452 41.22227478 81.12025452 C39.89183853 81.21862662 38.55634134 81.25104044 37.22227478 81.25306702 C36.41789978 81.25435608 35.61352478 81.25564514 34.78477478 81.25697327 C33.93914978 81.25310608 33.09352478 81.24923889 32.22227478 81.24525452 C31.37664978 81.2491217 30.53102478 81.25298889 29.65977478 81.25697327 C28.85539978 81.2556842 28.05102478 81.25439514 27.22227478 81.25306702 C26.47977478 81.25193909 25.73727478 81.25081116 24.97227478 81.24964905 C23.22227478 81.12025452 23.22227478 81.12025452 22.22227478 80.12025452 C21.0468443 72.36009815 21.08723051 64.499284 21.12461853 56.67103577 C21.12603348 55.53240585 21.12744843 54.39377594 21.12890625 53.22064209 C21.13445269 49.62465154 21.14699489 46.02872589 21.15977478 42.43275452 C21.16479671 39.9776773 21.1693584 37.52259909 21.17344666 35.06752014 C21.1844045 29.08507655 21.20108831 23.10267017 21.22227478 17.12025452 C20.13958313 17.12810974 20.13958313 17.12810974 19.03501892 17.13612366 C15.78494629 17.1568281 12.5348875 17.1698937 9.28477478 17.18275452 C7.58031189 17.19532288 7.58031189 17.19532288 5.84141541 17.20814514 C4.76182556 17.2113678 3.68223572 17.21459045 2.56993103 17.21791077 C1.06958313 17.22576599 1.06958313 17.22576599 -0.46107483 17.23377991 C-2.77772522 17.12025452 -2.77772522 17.12025452 -3.77772522 16.12025452 C-3.87747554 13.60889347 -3.91654705 11.13122037 -3.90272522 8.62025452 C-3.90659241 7.91771545 -3.91045959 7.21517639 -3.91444397 6.49134827 C-3.90226206 0.16893847 -3.90226206 0.16893847 0 0 Z M-0.77772522 4.12025452 C-0.9771439 6.18798186 -0.9771439 6.18798186 -0.96522522 8.55775452 C-0.97940491 9.36084045 -0.99358459 10.16392639 -1.00819397 10.99134827 C-0.97934878 13.33656085 -0.97934878 13.33656085 1.22227478 15.12025452 C3.30204877 15.47342881 3.30204877 15.47342881 5.68711853 15.49916077 C7.01066345 15.550401 7.01066345 15.550401 8.36094666 15.60267639 C9.28455994 15.62910217 10.20817322 15.65552795 11.15977478 15.68275452 C12.98151851 15.74275589 14.80314677 15.80640361 16.62461853 15.87416077 C17.83879456 15.9100531 17.83879456 15.9100531 19.07749939 15.94667053 C21.22227478 16.12025452 21.22227478 16.12025452 24.22227478 17.12025452 C24.22227478 37.58025452 24.22227478 58.04025452 24.22227478 79.12025452 C29.17227478 79.12025452 34.12227478 79.12025452 39.22227478 79.12025452 C41.01379854 77.32873076 40.39389874 74.6449902 40.42759705 72.223526 C40.44754227 70.96229416 40.46748749 69.70106232 40.48803711 68.40161133 C40.50502273 67.01485825 40.52190149 65.62810386 40.53868103 64.24134827 C40.55924404 62.83029562 40.58024033 61.41924922 40.60165405 60.00820923 C40.65694233 56.28791861 40.70632164 52.56757179 40.75450134 48.84718323 C40.8046672 45.05339027 40.86037886 41.25967928 40.91563416 37.46595764 C41.02329832 30.0174573 41.1242125 22.56888859 41.22227478 15.12025452 C49.14227478 15.12025452 57.06227478 15.12025452 65.22227478 15.12025452 C65.22227478 11.49025452 65.22227478 7.86025452 65.22227478 4.12025452 C58.45877324 2.87307524 51.74693577 2.97614603 44.88633728 2.98744202 C43.61124298 2.98648529 42.33614868 2.98552856 41.02241516 2.98454285 C38.33786066 2.9838642 35.6533981 2.98519035 32.96885681 2.98988342 C29.52204579 2.9956148 26.07531207 2.99227407 22.6285038 2.98631096 C19.33944545 2.98184302 16.05039663 2.98496302 12.76133728 2.98744202 C11.51977875 2.98541779 10.27822021 2.98339355 8.9990387 2.98130798 C7.86050446 2.98446014 6.72197021 2.9876123 5.54893494 2.99085999 C4.03839035 2.99205338 4.03839035 2.99205338 2.49732971 2.99327087 C0.25547393 2.86485483 0.25547393 2.86485483 -0.77772522 4.12025452 Z " fill="#7A5DB9" transform="translate(138.77772521972656,87.87974548339844)"/>
<path d="M0 0 C0 0.66 0 1.32 0 2 C1.32 2.33 2.64 2.66 4 3 C4 4.32 4 5.64 4 7 C3.30132812 7.27714844 2.60265625 7.55429688 1.8828125 7.83984375 C0.97273438 8.20207031 0.06265625 8.56429687 -0.875 8.9375 C-1.77992188 9.29714844 -2.68484375 9.65679687 -3.6171875 10.02734375 C-5.96137667 10.94901262 -5.96137667 10.94901262 -8 12 C-8 14.64 -8 17.28 -8 20 C-7.01 20.33 -6.02 20.66 -5 21 C-5 21.99 -5 22.98 -5 24 C-3.2709226 24.02725341 -1.54171824 24.04650987 0.1875 24.0625 C1.63189453 24.07990234 1.63189453 24.07990234 3.10546875 24.09765625 C5.85576513 24.00486622 8.32479591 23.62111685 11 23 C10.42655063 25.86724686 10.1385485 26.8614515 8 29 C8 30.32 8 31.64 8 33 C1.38887206 35.20370931 -6.22159705 34.20504941 -13 33 C-13 32.34 -13 31.68 -13 31 C-13.8353125 30.9071875 -13.8353125 30.9071875 -14.6875 30.8125 C-18.00086472 29.64834483 -19.70475296 27.60541556 -22 25 C-23.09506492 21.71480525 -23.09960608 19.26336585 -23.0625 15.8125 C-23.05347656 14.72582031 -23.04445313 13.63914063 -23.03515625 12.51953125 C-23.02355469 11.68808594 -23.01195312 10.85664063 -23 10 C-22.34 10 -21.68 10 -21 10 C-20.34 8.68 -19.68 7.36 -19 6 C-18.34 6 -17.68 6 -17 6 C-16.67 5.01 -16.34 4.02 -16 3 C-13.671875 2.05078125 -13.671875 2.05078125 -10.75 1.3125 C-9.79609375 1.06113281 -8.8421875 0.80976563 -7.859375 0.55078125 C-5.15395049 0.0296544 -2.74565683 -0.10521678 0 0 Z " fill="#8A52FA" transform="translate(284,134)"/>
<path d="M0 0 C6.04231302 4.48711853 8.23025847 10.87812947 9.50390625 18.08984375 C10.17823289 24.14171192 10.10007401 30.24151266 10.09936523 36.32348633 C10.10156829 38.44307058 10.11982432 40.56214691 10.13867188 42.68164062 C10.14160372 44.04166491 10.14358991 45.40169163 10.14453125 46.76171875 C10.14864014 47.98334717 10.15274902 49.20497559 10.15698242 50.46362305 C9.9140625 53.75 9.9140625 53.75 7.9140625 58.75 C2.3040625 58.42 -3.3059375 58.09 -9.0859375 57.75 C-9.5809375 55.77 -9.5809375 55.77 -10.0859375 53.75 C-10.6221875 54.20375 -11.1584375 54.6575 -11.7109375 55.125 C-18.45179822 59.73716786 -26.23364143 59.46304482 -34.0859375 58.75 C-39.87324553 57.22049716 -44.39376038 54.52811156 -48.0859375 49.75 C-51.14954287 44.18524806 -51.49776558 39.90153665 -50.0859375 33.75 C-47.87294763 28.74165451 -44.13062218 25.1688097 -39.1940918 22.8684082 C-32.89301272 20.59878697 -27.17479907 20.39082356 -20.5234375 20.5625 C-19.01040039 20.58280273 -19.01040039 20.58280273 -17.46679688 20.60351562 C-15.00593129 20.63850424 -12.54623415 20.68758842 -10.0859375 20.75 C-11.97162004 15.57699555 -11.97162004 15.57699555 -15.7734375 11.8125 C-22.69094776 9.59367595 -27.99188719 10.75570531 -34.69140625 12.99609375 C-37.0859375 13.75 -37.0859375 13.75 -42.0859375 14.75 C-44.0659375 10.79 -46.0459375 6.83 -48.0859375 2.75 C-34.89203296 -7.80512363 -14.44791233 -8.65792499 0 0 Z M-26.0859375 -4.25 C-26.0859375 -3.59 -26.0859375 -2.93 -26.0859375 -2.25 C-26.92125 -2.31960937 -26.92125 -2.31960937 -27.7734375 -2.390625 C-33.70867671 -2.67134577 -38.19509589 -1.75686245 -43.0859375 1.75 C-44.0759375 3.235 -44.0759375 3.235 -45.0859375 4.75 C-43.67166289 9.60804415 -43.67166289 9.60804415 -40.0859375 12.75 C-37.95251472 12.24209767 -37.95251472 12.24209767 -35.6484375 11.375 C-34.47474609 10.96121094 -34.47474609 10.96121094 -33.27734375 10.5390625 C-32.55417969 10.27867188 -31.83101563 10.01828125 -31.0859375 9.75 C-25.86240798 8.00882349 -21.51312064 8.32184506 -16.3359375 9.875 C-12.55223349 12.05790616 -11.08962827 13.89674853 -9.0859375 17.75 C-8.71569944 19.40885884 -8.37548418 21.07517117 -8.0859375 22.75 C-8.69477783 22.73428955 -9.30361816 22.7185791 -9.9309082 22.70239258 C-25.95492605 21.64729713 -25.95492605 21.64729713 -41.0859375 25.75 C-41.4159375 26.74 -41.7459375 27.73 -42.0859375 28.75 C-44.1484375 29.9375 -44.1484375 29.9375 -46.0859375 30.75 C-46.0859375 31.41 -46.0859375 32.07 -46.0859375 32.75 C-46.7459375 32.75 -47.4059375 32.75 -48.0859375 32.75 C-48.53020959 40.26560282 -48.74625986 45.6250049 -44.0859375 51.75 C-41.27083757 54.0273501 -41.27083757 54.0273501 -38.0859375 53.75 C-38.0859375 54.41 -38.0859375 55.07 -38.0859375 55.75 C-28.94807153 57.37450951 -20.61365944 57.78128674 -12.0859375 53.75 C-11.4259375 53.09 -10.7659375 52.43 -10.0859375 51.75 C-9.0959375 52.08 -8.1059375 52.41 -7.0859375 52.75 C-7.0859375 53.74 -7.0859375 54.73 -7.0859375 55.75 C-2.7959375 55.75 1.4940625 55.75 5.9140625 55.75 C6.94327315 51.63315738 7.07577882 47.89790911 7.08203125 43.6953125 C7.08535965 42.91614471 7.08868805 42.13697693 7.09211731 41.334198 C7.09717126 39.6884622 7.09952611 38.0427162 7.09936523 36.39697266 C7.10154875 33.89077702 7.11971225 31.38502391 7.13867188 28.87890625 C7.14160679 27.27604316 7.14359093 25.673178 7.14453125 24.0703125 C7.15171677 23.32637238 7.15890228 22.58243225 7.16630554 21.81594849 C7.13037144 13.5539274 4.61511656 7.56320721 -1.1484375 1.625 C-9.09251461 -3.44568752 -16.77028201 -4.89867234 -26.0859375 -4.25 Z " fill="#734FC9" transform="translate(309.0859375,111.25)"/>
<path d="M0 0 C1.61648438 0.01353516 1.61648438 0.01353516 3.265625 0.02734375 C4.08546875 0.03894531 4.9053125 0.05054687 5.75 0.0625 C5.42 0.7225 5.09 1.3825 4.75 2.0625 C2.89233398 2.47314453 2.89233398 2.47314453 0.49609375 2.6953125 C-0.35791016 2.77910156 -1.21191406 2.86289063 -2.09179688 2.94921875 C-2.98962891 3.02785156 -3.88746094 3.10648437 -4.8125 3.1875 C-6.16504883 3.31705078 -6.16504883 3.31705078 -7.54492188 3.44921875 C-9.77929918 3.66201659 -12.01413615 3.86604467 -14.25 4.0625 C-14.25 4.7225 -14.25 5.3825 -14.25 6.0625 C-15.075 6.371875 -15.9 6.68125 -16.75 7 C-22.35096212 9.80048106 -27.02650588 15.19715571 -29.4609375 20.8984375 C-31.54849774 29.26934736 -31.46366312 38.41344163 -27.41796875 46.1328125 C-26.83982422 47.08800781 -26.83982422 47.08800781 -26.25 48.0625 C-25.80398438 48.90296875 -25.35796875 49.7434375 -24.8984375 50.609375 C-22.02210641 54.88979189 -17.76991672 56.78300309 -13.25 59.0625 C-12.52039063 59.43117187 -11.79078125 59.79984375 -11.0390625 60.1796875 C-2.22093638 63.67599715 10.00090491 62.08600615 18.82421875 58.98046875 C19.45972656 58.67753906 20.09523438 58.37460938 20.75 58.0625 C20.75 57.4025 20.75 56.7425 20.75 56.0625 C22.07 55.4025 23.39 54.7425 24.75 54.0625 C24.75 53.0725 24.75 52.0825 24.75 51.0625 C23.43 50.4025 22.11 49.7425 20.75 49.0625 C20.75 48.4025 20.75 47.7425 20.75 47.0625 C19.76 47.0625 18.77 47.0625 17.75 47.0625 C17.255 48.0525 17.255 48.0525 16.75 49.0625 C13.78 48.5675 13.78 48.5675 10.75 48.0625 C10.42 49.0525 10.09 50.0425 9.75 51.0625 C-5.90389527 50.43287037 -5.90389527 50.43287037 -11.25 47.0625 C-13.75 44.125 -13.75 44.125 -15.25 41.0625 C-15.06353683 38.76278762 -14.87542316 37.68792316 -13.25 36.0625 C-11.86724444 35.99895496 -10.48117221 36.00529046 -9.09741211 36.04077148 C-7.77615578 36.07091591 -7.77615578 36.07091591 -6.4282074 36.10166931 C-5.47092239 36.12870438 -4.51363739 36.15573944 -3.52734375 36.18359375 C-2.55213272 36.20720474 -1.57692169 36.23081573 -0.57215881 36.25514221 C2.55620134 36.33198638 5.68432672 36.41592091 8.8125 36.5 C10.92772272 36.55319993 13.04295704 36.60594044 15.15820312 36.65820312 C20.35561541 36.78762939 25.552852 36.92288423 30.75 37.0625 C30.46791448 34.83487348 30.1755469 32.60854754 29.87890625 30.3828125 C29.71720947 29.14289551 29.5555127 27.90297852 29.38891602 26.62548828 C28.68131955 22.67949562 27.47828525 19.47132498 25.65234375 15.9296875 C24.7163083 13.99278297 24.20219162 12.16029616 23.75 10.0625 C29.07960287 14.3557912 31.16967998 19.46638166 32.75 26.0625 C33.08304554 29.76300605 33.16596354 33.3665617 32.75 37.0625 C31.75 38.0625 31.75 38.0625 29.92137146 38.18275452 C29.12417191 38.18053391 28.32697235 38.17831329 27.50561523 38.17602539 C26.60475693 38.17594986 25.70389862 38.17587433 24.77574158 38.17579651 C23.79658279 38.17063522 22.81742401 38.16547394 21.80859375 38.16015625 C20.81118668 38.1587413 19.8137796 38.15732635 18.78614807 38.15586853 C15.58656876 38.15025114 12.38705831 38.13769571 9.1875 38.125 C7.02408955 38.11998724 4.86067801 38.11542395 2.69726562 38.11132812 C-2.61851325 38.10027607 -7.93425171 38.08352104 -13.25 38.0625 C-9.45266413 44.02384936 -9.45266413 44.02384936 -3.25 47.0625 C3.61871912 47.84611444 9.15009952 47.67032992 15.03125 43.83984375 C16.75 43.0625 16.75 43.0625 18.73046875 43.203125 C21.33796236 44.31269675 22.69337782 45.75403821 24.5625 47.875 C25.50029297 48.90560547 25.50029297 48.90560547 26.45703125 49.95703125 C27.75 52.0625 27.75 52.0625 27.58203125 54.1953125 C25.78275714 58.23312012 22.0745497 59.90602068 18.25 61.75 C7.95015506 65.61244185 -4.6999427 65.65704395 -14.8515625 61.328125 C-22.32090371 57.38664853 -28.85808277 52.08837834 -32.0625 44.0625 C-34.63310591 35.30175686 -34.48893148 25.60055606 -30.55859375 17.3046875 C-25.33397469 8.35265365 -18.08598584 3.66932301 -8.27734375 0.40625 C-5.49972212 -0.06471475 -2.81485086 -0.0305962 0 0 Z " fill="#7552C8" transform="translate(440.25,105.9375)"/>
<path d="M0 0 C7.21609672 1.68572751 12.38300745 4.15181369 18 9 C17.34 9.66 16.68 10.32 16 11 C13 9 13 9 12 8 C11.01 8.33 10.02 8.66 9 9 C9.66 9.66 10.32 10.32 11 11 C10.625 14.125 10.625 14.125 10 17 C9.01 17 8.02 17 7 17 C7.53625 17.9075 8.0725 18.815 8.625 19.75 C10 23 10 23 9.25 25.3125 C8 27 8 27 7 28 C2.69352364 28.25342236 -1.62445054 28.18522638 -5.9375 28.1875 C-7.15630859 28.19974609 -8.37511719 28.21199219 -9.63085938 28.22460938 C-11.37399414 28.22750977 -11.37399414 28.22750977 -13.15234375 28.23046875 C-14.7609729 28.23663208 -14.7609729 28.23663208 -16.40209961 28.24291992 C-19 28 -19 28 -21 26 C-20.54545455 20.54545455 -20.54545455 20.54545455 -18 18 C-18.33 17.01 -18.66 16.02 -19 15 C-16.47043472 11.9083091 -13.77545388 11.09068668 -10 10 C-10.66 9.34 -11.32 8.68 -12 8 C-11.67 7.34 -11.34 6.68 -11 6 C-11.39938767 3.90178785 -11.39938767 3.90178785 -12 2 C-11.21753906 1.93941406 -10.43507813 1.87882812 -9.62890625 1.81640625 C-8.61699219 1.73261719 -7.60507812 1.64882812 -6.5625 1.5625 C-5.55316406 1.48128906 -4.54382813 1.40007812 -3.50390625 1.31640625 C-1.06359221 1.26788532 -1.06359221 1.26788532 0 0 Z M-17.8125 19.9375 C-19.33264296 22.18109346 -19.33264296 22.18109346 -19 26 C-10.09 26 -1.18 26 8 26 C6.91910497 20.59552487 5.98080159 19.49533798 2 16 C-4.75542427 12.62228787 -12.88872164 14.67415072 -17.8125 19.9375 Z " fill="#8951FA" transform="translate(446,106)"/>
<path d="M0 0 C1 1 1 1 1.09765625 4.59765625 C1.0909822 6.08596867 1.07902183 7.57426432 1.0625 9.0625 C1.05798828 9.82111328 1.05347656 10.57972656 1.04882812 11.36132812 C1.0370068 13.24091871 1.01907078 15.12046899 1 17 C-1.25558738 18.12779369 -2.74650832 18.16348264 -5.25 18.3125 C-9.76347671 18.79219318 -12.55832126 19.8940948 -16 23 C-17.95257505 27.56831254 -18.31890453 31.86529752 -18.37890625 36.76953125 C-18.39590073 37.49113937 -18.4128952 38.2127475 -18.43040466 38.95622253 C-18.4831741 41.24156153 -18.52370357 43.52688453 -18.5625 45.8125 C-18.60643112 48.1158829 -18.65303774 50.41912664 -18.70530701 52.72233582 C-18.73727532 54.15119373 -18.76416205 55.58017594 -18.78553772 57.00923157 C-18.88817612 61.88817612 -18.88817612 61.88817612 -20 63 C-22.05468694 63.29100716 -24.12011784 63.50762607 -26.1875 63.6875 C-27.31542969 63.79449219 -28.44335938 63.90148437 -29.60546875 64.01171875 C-33.18278923 63.99936897 -35.65919892 63.19746903 -39 62 C-39.02312792 54.19424805 -39.04091738 46.38850405 -39.05181217 38.58272648 C-39.05704002 34.9585404 -39.06413587 31.3343777 -39.07543945 27.71020508 C-39.08627184 24.21540025 -39.09227758 20.72061796 -39.09487724 17.22579765 C-39.09763551 15.23760611 -39.10544688 13.24942369 -39.11329651 11.26124573 C-39.11337204 10.06007614 -39.11344757 8.85890656 -39.11352539 7.62133789 C-39.115746 6.55766495 -39.11796661 5.493992 -39.12025452 4.39808655 C-39 2 -39 2 -38 1 C-35.13732433 0.92674832 -32.299281 0.90761795 -29.4375 0.9375 C-28.63119141 0.94201172 -27.82488281 0.94652344 -26.99414062 0.95117188 C-24.99606244 0.96299482 -22.99802217 0.98093086 -21 1 C-20.34 2.65 -19.68 4.3 -19 6 C-18.29875 5.38125 -17.5975 4.7625 -16.875 4.125 C-11.40517864 0.08208856 -6.58526868 -0.33484417 0 0 Z M-6 1 C-6 1.66 -6 2.32 -6 3 C-7.85625 3.1546875 -7.85625 3.1546875 -9.75 3.3125 C-13.25682248 3.74774392 -15.47569687 4.37051757 -18 7 C-18 7.66 -18 8.32 -18 9 C-18.78375 8.505 -19.5675 8.01 -20.375 7.5 C-22.78552327 5.83462035 -22.78552327 5.83462035 -25 6 C-25 5.34 -25 4.68 -25 4 C-24.01 3.67 -23.02 3.34 -22 3 C-26.95 3 -31.9 3 -37 3 C-38.29094908 5.58189816 -38.0881661 7.37057065 -38.03759766 10.26000977 C-38.02072906 11.35777237 -38.00386047 12.45553497 -37.98648071 13.58656311 C-37.9625827 14.77616135 -37.93868469 15.96575958 -37.9140625 17.19140625 C-37.89282318 18.40698715 -37.87158386 19.62256805 -37.84970093 20.87498474 C-37.80338213 23.44819761 -37.75444942 26.02136453 -37.703125 28.59448242 C-37.62526151 32.54921798 -37.55814846 36.50403441 -37.4921875 40.45898438 C-37.44595852 42.95313706 -37.39910476 45.44727825 -37.3515625 47.94140625 C-37.33171295 49.13302872 -37.3118634 50.32465118 -37.29141235 51.55238342 C-37.26823944 52.64699387 -37.24506653 53.74160431 -37.22119141 54.86938477 C-37.20263092 55.83820084 -37.18407043 56.80701691 -37.16494751 57.80519104 C-37.24172612 59.97564929 -37.24172612 59.97564929 -36 61 C-33.46950598 61.07313567 -30.96695163 61.09247527 -28.4375 61.0625 C-27.72658203 61.05798828 -27.01566406 61.05347656 -26.28320312 61.04882812 C-24.52209987 61.03700864 -22.76103964 61.01907263 -21 61 C-20.97494385 60.03698975 -20.9498877 59.07397949 -20.92407227 58.08178711 C-20.82935729 54.48287383 -20.72929748 50.884125 -20.62768555 47.28540039 C-20.58457755 45.73270536 -20.54288732 44.17997026 -20.50268555 42.62719727 C-20.4443931 40.38545697 -20.38087422 38.14391396 -20.31640625 35.90234375 C-20.29133751 34.87378517 -20.29133751 34.87378517 -20.26576233 33.82444763 C-20.13472264 29.48723589 -19.81958041 25.26444779 -19 21 C-17.1875 19.6875 -17.1875 19.6875 -15 19 C-14.38125 18.62875 -13.7625 18.2575 -13.125 17.875 C-10.35911339 16.73610551 -7.97281435 17 -5 17 C-3.68 16.34 -2.36 15.68 -1 15 C-1 10.38 -1 5.76 -1 1 C-2.65 1 -4.3 1 -6 1 Z " fill="#7352B4" transform="translate(252,106)"/>
<path d="M0 0 C2.79192205 -0.05380578 5.5828141 -0.09357669 8.375 -0.125 C9.1690625 -0.14175781 9.963125 -0.15851563 10.78125 -0.17578125 C12.85492015 -0.19335473 14.92883241 -0.10335168 17 0 C19.53562284 2.53562284 19.23544304 4.12205742 19.24884033 7.57958984 C19.2380545 8.74699707 19.2380545 8.74699707 19.22705078 9.93798828 C19.22734283 10.75758026 19.22763489 11.57717224 19.22793579 12.42160034 C19.22653944 15.13794443 19.21096401 17.85401618 19.1953125 20.5703125 C19.19158345 22.45075328 19.18873597 24.33119599 19.18673706 26.2116394 C19.17909207 31.16665998 19.15943619 36.12156374 19.1373291 41.07653809 C19.11688928 46.1304364 19.10773934 51.18435354 19.09765625 56.23828125 C19.07619109 66.15890555 19.04204474 76.07944307 19 86 C15.6717269 87.66413655 12.00266027 86.81867406 8.375 86.5625 C7.57320313 86.51029297 6.77140625 86.45808594 5.9453125 86.40429688 C3.96320897 86.27451629 1.98155501 86.13790265 0 86 C0 84.68 0 83.36 0 82 C-0.54269531 82.27714844 -1.08539063 82.55429688 -1.64453125 82.83984375 C-2.71767578 83.38318359 -2.71767578 83.38318359 -3.8125 83.9375 C-4.87404297 84.47697266 -4.87404297 84.47697266 -5.95703125 85.02734375 C-12.79448155 88.28264991 -21.66800528 87.99881301 -28.96484375 86.31640625 C-35.01452587 84.06991412 -41.02822171 80.63222317 -44.1875 74.8125 C-44.455625 74.214375 -44.72375 73.61625 -45 73 C-44.01 73 -43.02 73 -42 73 C-41.46375 73.721875 -40.9275 74.44375 -40.375 75.1875 C-36.5463817 79.7213901 -30.91546958 83.01235569 -25 84 C-22.29990633 84.1198184 -19.63702688 84.18507018 -16.9375 84.1875 C-16.21755859 84.19974609 -15.49761719 84.21199219 -14.75585938 84.22460938 C-10.9573753 84.23519011 -9.23633482 84.15755655 -6 82 C-5.01 82 -4.02 82 -3 82 C-2.505 80.515 -2.505 80.515 -2 79 C-0.68 79.33 0.64 79.66 2 80 C2.33 81.32 2.66 82.64 3 84 C7.95 84 12.9 84 18 84 C17.67 57.6 17.34 31.2 17 4 C12.21460555 2.40486852 7.0268246 2.41890205 2 2 C1.67 10.58 1.34 19.16 1 28 C0.34 27.67 -0.32 27.34 -1 27 C-1.02892385 22.87501462 -1.04677267 18.75005515 -1.0625 14.625 C-1.07087891 13.449375 -1.07925781 12.27375 -1.08789062 11.0625 C-1.09111328 9.94101563 -1.09433594 8.81953125 -1.09765625 7.6640625 C-1.10289307 6.62717285 -1.10812988 5.5902832 -1.11352539 4.52197266 C-1 2 -1 2 0 0 Z " fill="#7658B6" transform="translate(378,83)"/>
<path d="M0 0 C2.15567885 1.5995229 3.38482474 2.80797643 5 5 C4.78997789 9.13918583 2.17238839 11.13652601 -0.75 13.8125 C-1.61109375 14.62332031 -2.4721875 15.43414062 -3.359375 16.26953125 C-6 18 -6 18 -8.671875 17.8828125 C-11.61948762 16.76509362 -13.57646515 14.99941625 -16 13 C-23.4528898 9.06653039 -31.93289065 9.90529831 -40 11 C-38 8 -38 8 -36.16015625 7.328125 C-27.95938123 6.08243765 -20.83238945 7.49840033 -13 10 C-12.67 9.34 -12.34 8.68 -12 8 C-11.401875 8.20625 -10.80375 8.4125 -10.1875 8.625 C-7.71549154 9.30671915 -7.71549154 9.30671915 -5 7 C-5 7.99 -5 8.98 -5 10 C-2.96758273 9.36020151 -2.96758273 9.36020151 -1 8 C-0.18828772 5.44480079 -0.18828772 5.44480079 0 3 C-0.7425 2.731875 -1.485 2.46375 -2.25 2.1875 C-5 1 -5 1 -6.82421875 -0.43359375 C-16.99450939 -7.75547265 -29.29810821 -6.15408566 -41 -5 C-42.7015625 -4.84917969 -42.7015625 -4.84917969 -44.4375 -4.6953125 C-46.62764048 -4.48998683 -48.8145981 -4.25078382 -51 -4 C-38.71309716 -16.28690284 -12.2834885 -8.04010157 0 0 Z " fill="#2E9F6C" transform="translate(562,97)"/>
<path d="M0 0 C0.625 2.0625 0.625 2.0625 1 4 C1.92039062 4.12568359 1.92039062 4.12568359 2.859375 4.25390625 C5 5 5 5 6.265625 6.77734375 C6.75289062 7.84662109 6.75289062 7.84662109 7.25 8.9375 C7.58515625 9.64777344 7.9203125 10.35804687 8.265625 11.08984375 C9 13 9 13 9 15 C9.66 15 10.32 15 11 15 C13.64067447 22.92202341 12.81373998 31.89689781 9.16796875 39.328125 C8 41 8 41 5 43 C5.65040327 40.1836907 6.53233589 37.5723379 7.5625 34.875 C10.22818302 26.81196869 9.65539291 19.92214536 6.1953125 12.19140625 C2.87512653 6.10439864 -2.93167524 2.22049743 -9.5 0.25 C-17.81325727 -0.58132573 -23.819139 0.98997067 -31.25 4.5625 C-35.91730982 8.6994337 -39.53400721 15.6178755 -40.203125 21.91015625 C-40.36860675 29.5085264 -38.53626905 36.2810888 -35 43 C-37.5 41.25 -37.5 41.25 -40 39 C-40 37.68 -40 36.36 -40 35 C-40.66 35 -41.32 35 -42 35 C-43.17426264 32.65147472 -43.11508173 31.26225935 -43.09765625 28.6484375 C-43.09443359 27.79765625 -43.09121094 26.946875 -43.08789062 26.0703125 C-43.07951172 25.18085938 -43.07113281 24.29140625 -43.0625 23.375 C-43.05798828 22.4778125 -43.05347656 21.580625 -43.04882812 20.65625 C-43.03702591 18.43743352 -43.02056155 16.21874982 -43 14 C-42.34 14 -41.68 14 -41 14 C-40.71125 13.195625 -40.4225 12.39125 -40.125 11.5625 C-39 9 -39 9 -37 8 C-36.67 7.01 -36.34 6.02 -36 5 C-26.59164041 -4.40835959 -11.8455813 -5.92279065 0 0 Z " fill="#408F6C" transform="translate(636,107)"/>
<path d="M0 0 C4.45226627 2.12494526 7.04864569 5.26046854 9.75 9.3125 C9.89245897 12.07905324 9.93769445 14.73903306 9.875 17.5 C9.86597656 18.24958984 9.85695313 18.99917969 9.84765625 19.77148438 C9.82412578 21.61862654 9.78825561 23.46560412 9.75 25.3125 C8.76 25.3125 7.77 25.3125 6.75 25.3125 C6.79640625 24.38308594 6.8428125 23.45367187 6.890625 22.49609375 C7.30650144 12.63222933 7.30650144 12.63222933 2.75 4.3125 C-1.37096912 1.60443458 -6.46943567 1.65485623 -11.25 2.3125 C-15.29195146 4.10892287 -17.39281311 5.96182591 -19.1875 9.9375 C-21.14421984 16.18036808 -20.37071025 21.98806393 -17.5625 27.8125 C-14.77163517 30.82965117 -13.29885028 31.62495939 -9.25 32.3125 C-4.43007674 32.22029277 -0.50266199 31.66012336 3.75 29.3125 C3.625 31.1875 3.625 31.1875 2.75 33.3125 C-2.85773341 36.04797971 -8.36355195 35.71660273 -14.375 34.875 C-18.91849772 32.40570776 -21.25861127 29.04803608 -23.25 24.3125 C-24.32900575 17.54020373 -23.97404853 11.13132582 -20.25 5.3125 C-14.01774358 -1.25623975 -8.53522967 -1.80552935 0 0 Z " fill="#754BCB" transform="translate(369.25,120.6875)"/>
<path d="M0 0 C21.78 0 43.56 0 66 0 C66.495 1.485 66.495 1.485 67 3 C66.01 3.33 65.02 3.66 64 4 C64 3.34 64 2.68 64 2 C63.45917786 2.16265854 62.91835571 2.32531708 62.36114502 2.49290466 C59.58808849 3.08846488 57.05911339 3.11969372 54.22167969 3.11352539 C53.0607782 3.11344986 51.89987671 3.11337433 50.70379639 3.11329651 C49.45576233 3.10813522 48.20772827 3.10297394 46.921875 3.09765625 C45.64016418 3.0962413 44.35845337 3.09482635 43.03790283 3.09336853 C39.6381636 3.08955901 36.2384674 3.07974214 32.83874512 3.06866455 C29.366461 3.05841674 25.8941699 3.0538637 22.421875 3.04882812 C15.61456571 3.03811841 8.80728492 3.02106084 2 3 C1.97310784 4.47906892 1.95365379 5.95827483 1.9375 7.4375 C1.92589844 8.26121094 1.91429687 9.08492187 1.90234375 9.93359375 C1.76732652 11.99163938 1.76732652 11.99163938 3 13 C4.48638992 13.15655027 5.97949127 13.25066943 7.47265625 13.31640625 C8.82133789 13.37924805 8.82133789 13.37924805 10.19726562 13.44335938 C11.61555664 13.50233398 11.61555664 13.50233398 13.0625 13.5625 C14.01189453 13.60568359 14.96128906 13.64886719 15.93945312 13.69335938 C18.29281353 13.79979276 20.64628354 13.90181008 23 14 C23 14.33 23 14.66 23 15 C19.37501666 15.02893932 15.75006287 15.04677792 12.125 15.0625 C10.57619141 15.07506836 10.57619141 15.07506836 8.99609375 15.08789062 C8.00996094 15.09111328 7.02382812 15.09433594 6.0078125 15.09765625 C5.09660645 15.10289307 4.18540039 15.10812988 3.24658203 15.11352539 C1 15 1 15 -1 14 C-1.02694851 12.04174127 -1.04637218 10.08337774 -1.0625 8.125 C-1.07410156 7.03445312 -1.08570313 5.94390625 -1.09765625 4.8203125 C-1 2 -1 2 0 0 Z " fill="#7C55DA" transform="translate(137,89)"/>
<path d="M0 0 C0.66 0 1.32 0 2 0 C2 19.47 2 38.94 2 59 C-1.69214225 55.30785775 -1.11907578 50.4128945 -1.13894653 45.46456909 C-1.1369223 44.62805817 -1.13489807 43.79154724 -1.1328125 42.9296875 C-1.13376923 42.05281281 -1.13472595 41.17593811 -1.13571167 40.27249146 C-1.13639092 38.41831389 -1.13455441 36.56413391 -1.13037109 34.70996094 C-1.12505787 31.90554289 -1.13030472 29.10128783 -1.13671875 26.296875 C-1.13966342 17.48818854 -1.12206679 8.75416573 0 0 Z " fill="#7357E5" transform="translate(161,105)"/>
<path d="M0 0 C1.9375 0.75 1.9375 0.75 4 2 C4.62890625 4.078125 4.62890625 4.078125 5 6 C-5.73620028 16.23915397 -14.8022833 20.11591779 -29.5625 20.25 C-30.27075928 20.2593457 -30.97901855 20.26869141 -31.70874023 20.27832031 C-36.76000967 20.2478945 -41.14007406 19.3776168 -46 18 C-45.01 17.01 -44.02 16.02 -43 15 C-42.67 15.66 -42.34 16.32 -42 17 C-27.37649435 17.35542722 -27.37649435 17.35542722 -13 15 C-13 14.01 -13 13.02 -13 12 C-11.989375 12.12375 -10.97875 12.2475 -9.9375 12.375 C-5.34493111 11.93761249 -3.53937103 10.81494617 -0.24609375 7.734375 C1.33485699 5.89897514 1.33485699 5.89897514 0.9375 2.625 C0.628125 1.75875 0.31875 0.8925 0 0 Z " fill="#399269" transform="translate(562,156)"/>
<path d="M0 0 C0.66 0 1.32 0 2 0 C1.39359033 5.84825601 -1.75512047 8.09877834 -6.0390625 11.78125 C-15.26483071 18.69449056 -25.25638405 22.39090454 -36.75 22.3125 C-37.53552246 22.31121094 -38.32104492 22.30992187 -39.13037109 22.30859375 C-45.41118342 22.205397 -51.08670343 21.18818023 -57 19 C-53.74358583 17.91452861 -52.06100525 18.06773826 -48.6875 18.4375 C-38.52420423 19.36143598 -29.47452653 20.13433885 -20 16 C-17 15.8125 -17 15.8125 -15 16 C-15 15.34 -15 14.68 -15 14 C-12.4385343 11.70351351 -11.52032428 11 -8 11 C-8 10.34 -8 9.68 -8 9 C-7.34 9 -6.68 9 -6 9 C-6 8.34 -6 7.68 -6 7 C-5.01 7 -4.02 7 -3 7 C-2.690625 6.21625 -2.38125 5.4325 -2.0625 4.625 C-1 2 -1 2 0 0 Z " fill="#369068" transform="translate(658,154)"/>
<path d="M0 0 C1.31194336 0.02030273 1.31194336 0.02030273 2.65039062 0.04101562 C4.78803086 0.07605891 6.92534984 0.12985459 9.0625 0.1875 C9.0625 3.1575 9.0625 6.1275 9.0625 9.1875 C8.0725 9.5175 7.0825 9.8475 6.0625 10.1875 C6.3925 7.5475 6.7225 4.9075 7.0625 2.1875 C4.47827541 2.30168667 1.89570487 2.42842362 -0.6875 2.5625 C-1.78191406 2.60890625 -1.78191406 2.60890625 -2.8984375 2.65625 C-6.67692656 2.8623494 -9.71696668 3.10262843 -12.9375 5.1875 C-13.1877157 8.10384129 -13.1877157 8.10384129 -12.9375 11.1875 C-9.67754414 13.36080391 -8.70770034 13.43671459 -4.9375 13.375 C-4.07125 13.36855469 -3.205 13.36210937 -2.3125 13.35546875 C0.21177465 13.27580437 0.21177465 13.27580437 3.0625 12.1875 C3.0625 13.1775 3.0625 14.1675 3.0625 15.1875 C-0.83468171 17.05415742 -3.47834185 17.32715761 -7.75 16.8125 C-9.21373047 16.64621094 -9.21373047 16.64621094 -10.70703125 16.4765625 C-11.44308594 16.38117188 -12.17914063 16.28578125 -12.9375 16.1875 C-13.2675 15.1975 -13.5975 14.2075 -13.9375 13.1875 C-14.5975 12.8575 -15.2575 12.5275 -15.9375 12.1875 C-16.3515625 10.12109375 -16.3515625 10.12109375 -16.5625 7.625 C-16.63726562 6.79871094 -16.71203125 5.97242188 -16.7890625 5.12109375 C-16.83804687 4.48300781 -16.88703125 3.84492188 -16.9375 3.1875 C-11.1154712 0.1777402 -6.49296548 -0.19256704 0 0 Z " fill="#7550D0" transform="translate(291.9375,141.8125)"/>
<path d="M0 0 C2.68811423 2.04748887 3.73752653 4.06995703 4.671875 7.2734375 C3.95927321 9.47062634 3.28638067 10.65893183 1.671875 12.2734375 C-2.63460136 12.52685986 -6.95257554 12.45866388 -11.265625 12.4609375 C-12.48443359 12.47318359 -13.70324219 12.48542969 -14.95898438 12.49804688 C-16.70211914 12.50094727 -16.70211914 12.50094727 -18.48046875 12.50390625 C-20.0890979 12.51006958 -20.0890979 12.51006958 -21.73022461 12.51635742 C-24.328125 12.2734375 -24.328125 12.2734375 -26.328125 10.2734375 C-26.11286105 5.42999866 -24.79245794 2.64413982 -21.328125 -0.7265625 C-14.32500962 -4.14668861 -6.72925408 -3.7952993 0 0 Z M-23.140625 4.2109375 C-24.66076796 6.45453096 -24.66076796 6.45453096 -24.328125 10.2734375 C-15.418125 10.2734375 -6.508125 10.2734375 2.671875 10.2734375 C1.59097997 4.86896237 0.65267659 3.76877548 -3.328125 0.2734375 C-10.08354927 -3.10427463 -18.21684664 -1.05241178 -23.140625 4.2109375 Z " fill="#714DC3" transform="translate(451.328125,121.7265625)"/>
<path d="M0 0 C0.680625 0.721875 1.36125 1.44375 2.0625 2.1875 C8.81721758 8.88513546 15.4593309 12.23698292 25.15625 12.2734375 C25.8471875 12.26570312 26.538125 12.25796875 27.25 12.25 C27.95640625 12.25773438 28.6628125 12.26546875 29.390625 12.2734375 C33.13543373 12.25925262 34.80915344 12.12723104 38 10 C38.99 10 39.98 10 41 10 C41.33 9.01 41.66 8.02 42 7 C43.32 7.33 44.64 7.66 46 8 C46.495 9.98 46.495 9.98 47 12 C51.29 12 55.58 12 60 12 C60 12.33 60 12.66 60 13 C55.05 13 50.1 13 45 13 C45 12.01 45 11.02 45 10 C44.30777344 10.3609375 43.61554688 10.721875 42.90234375 11.09375 C33.75123519 15.43419675 25.02333596 16.67623618 15.0703125 14.30078125 C8.9979639 12.11362834 2.96940886 8.62785842 -0.1875 2.8125 C-0.5896875 1.9153125 -0.5896875 1.9153125 -1 1 C-0.67 0.67 -0.34 0.34 0 0 Z " fill="#704DC6" transform="translate(334,155)"/>
<path d="M0 0 C0.33 0 0.66 0 1 0 C1.15360375 8.06642566 1.30178536 16.13292459 1.4429636 24.19957638 C1.50868398 27.94487413 1.57630178 31.69011795 1.64819336 35.43530273 C1.71744888 39.04674563 1.781802 42.65824509 1.84269524 46.26983833 C1.86684974 47.6506323 1.89279813 49.03139605 1.92053413 50.41212273 C1.95895431 52.33968352 1.99051753 54.26737736 2.02172852 56.19506836 C2.04171402 57.29427109 2.06169952 58.39347382 2.08229065 59.52598572 C2 62 2 62 1 63 C-0.33043625 63.0983721 -1.66593344 63.13078592 -3 63.1328125 C-3.804375 63.13410156 -4.60875 63.13539063 -5.4375 63.13671875 C-6.283125 63.13285156 -7.12875 63.12898438 -8 63.125 C-8.845625 63.12886719 -9.69125 63.13273437 -10.5625 63.13671875 C-11.366875 63.13542969 -12.17125 63.13414062 -13 63.1328125 C-13.7425 63.13168457 -14.485 63.13055664 -15.25 63.12939453 C-17 63 -17 63 -18 62 C-18.04080783 60.00041636 -18.04254356 57.99954746 -18 56 C-16 58 -16 58 -16 61 C-11.05 60.67 -6.1 60.34 -1 60 C-0.67 40.2 -0.34 20.4 0 0 Z " fill="#704CC1" transform="translate(179,106)"/>
<path d="M0 0 C0.495 0.99 0.495 0.99 1 2 C-1.87978859 1.47640207 -4.57718391 0.81829395 -7.375 -0.0625 C-16.39944337 -2.39640777 -22.67433218 0.56847475 -31 4 C-31.99 4.33 -32.98 4.66 -34 5 C-34.28875 5.5775 -34.5775 6.155 -34.875 6.75 C-36.38015001 9.76030003 -38.57377963 11.70147544 -41 14 C-41.33 13.34 -41.66 12.68 -42 12 C-37.34678767 4.89680087 -32.65152492 0.91533379 -24.8125 -2.3125 C-16.16320847 -3.87220831 -7.95220021 -3.97610011 0 0 Z " fill="#7351C8" transform="translate(374,109)"/>
<path d="M0 0 C0.33 0 0.66 0 1 0 C1.33 18.15 1.66 36.3 2 55 C6.95 55.33 11.9 55.66 17 56 C17 56.33 17 56.66 17 57 C10.40854841 59.43597124 7.78803613 58.77880361 0 58 C0 38.86 0 19.72 0 0 Z " fill="#6F47C1" transform="translate(214,111)"/>
<path d="M0 0 C0 0.99 0 1.98 0 3 C-14.85 3 -29.7 3 -45 3 C-45 2.34 -45 1.68 -45 1 C-39.39495834 0.85677909 -33.78989648 0.7143864 -28.18481445 0.57275391 C-26.27888422 0.5244779 -24.37295966 0.47597743 -22.46704102 0.42724609 C-19.72413579 0.3571536 -16.98121103 0.28787406 -14.23828125 0.21875 C-13.38913651 0.19687622 -12.53999176 0.17500244 -11.66511536 0.15246582 C-7.77560856 0.05518227 -3.89112805 -0.02767024 0 0 Z " fill="#7E50E9" transform="translate(471,140)"/>
<path d="M0 0 C0.66 0.33 1.32 0.66 2 1 C0.00239373 3.06894935 -1.88270926 4.9185481 -4.25 6.5625 C-5.11625 7.2740625 -5.11625 7.2740625 -6 8 C-6 8.99 -6 9.98 -6 11 C-5.34 11.66 -4.68 12.32 -4 13 C-4.99 13.66 -5.98 14.32 -7 15 C-7 14.34 -7 13.68 -7 13 C-8.32 13 -9.64 13 -11 13 C-11.33 13.66 -11.66 14.32 -12 15 C-12.66 15 -13.32 15 -14 15 C-14.2475 15.78375 -14.495 16.5675 -14.75 17.375 C-16.18650005 20.3916501 -17.04720831 20.71565565 -20 22 C-16.00387379 12.84221078 -9.57766057 3.9120022 0 0 Z " fill="#279E68" transform="translate(597,93)"/>
<path d="M0 0 C-3.6275413 2.41836087 -5.13373992 1.80544642 -9.28076172 1.23486328 C-14.55620929 0.77921769 -19.80505801 1.44907059 -25.0625 1.9375 C-26.79016602 2.08735352 -26.79016602 2.08735352 -28.55273438 2.24023438 C-31.36927907 2.48565943 -34.18485535 2.73908415 -37 3 C-28.62061926 -5.37938074 -10.33486201 -2.85099642 0 0 Z " fill="#449A76" transform="translate(548,90)"/>
<path d="M0 0 C0.33 0 0.66 0 1 0 C1 2.31 1 4.62 1 7 C1.66 7 2.32 7 3 7 C3.07476562 7.6290625 3.14953125 8.258125 3.2265625 8.90625 C4.28008242 15.76445809 6.55775608 19.77312061 11 25 C11.66 25.99 12.32 26.98 13 28 C11.02 28 9.04 28 7 28 C6.67 27.34 6.34 26.68 6 26 C3.98330173 24.86649466 3.98330173 24.86649466 2 24 C2.66 23.67 3.32 23.34 4 23 C3.2884375 21.39125 3.2884375 21.39125 2.5625 19.75 C0.43801902 14.94682562 -0.11986817 11.02787166 -0.0625 5.75 C-0.04896484 4.13351563 -0.04896484 4.13351563 -0.03515625 2.484375 C-0.02355469 1.66453125 -0.01195312 0.8446875 0 0 Z " fill="#318F66" transform="translate(505,126)"/>
<path d="M0 0 C0.66 0 1.32 0 2 0 C2 11.55 2 23.1 2 35 C1.34 34.67 0.68 34.34 0 34 C-0.80226815 22.53373669 -1.11287545 11.45405659 0 0 Z " fill="#6B3FDA" transform="translate(161,105)"/>
<path d="M0 0 C0.2475 0.53625 0.495 1.0725 0.75 1.625 C3.69688346 7.46003238 3.69688346 7.46003238 8.6875 11.4375 C14.53114949 12.42981784 19.78373816 11.87956536 25 9 C24.875 10.875 24.875 10.875 24 13 C18.37942247 15.74174514 12.73272724 15.57807692 6.75 14.3125 C3.29378979 12.66294513 1.88918485 11.34240397 0 8 C-0.31760033 5.23892617 -0.18950032 2.79512971 0 0 Z " fill="#7B55CC" transform="translate(348,141)"/>
<path d="M0 0 C0.495 1.485 0.495 1.485 1 3 C0.01 3.33 -0.98 3.66 -2 4 C-2 3.34 -2 2.68 -2 2 C-2.5502887 2.16455185 -3.10057739 2.3291037 -3.6675415 2.49864197 C-6.30244009 3.06500899 -8.62462033 3.07947242 -11.31933594 3.02172852 C-12.38013367 3.00163223 -13.4409314 2.98153595 -14.53387451 2.96083069 C-16.24187225 2.92027809 -16.24187225 2.92027809 -17.984375 2.87890625 C-19.15510559 2.85529526 -20.32583618 2.83168427 -21.53204346 2.80735779 C-25.27148751 2.73078198 -29.01072131 2.64673096 -32.75 2.5625 C-35.28514596 2.50927326 -37.82030218 2.4565329 -40.35546875 2.40429688 C-46.5704426 2.27517498 -52.78526028 2.13991524 -59 2 C-59 1.67 -59 1.34 -59 1 C-51.40113519 0.85693224 -43.80225702 0.71459081 -36.20336914 0.57275391 C-33.61840507 0.52441863 -31.0334441 0.47591719 -28.44848633 0.42724609 C-24.73259268 0.35730994 -21.01668827 0.28797168 -17.30078125 0.21875 C-16.14540359 0.19687622 -14.99002594 0.17500244 -13.79963684 0.15246582 C-12.71889389 0.13244507 -11.63815094 0.11242432 -10.5246582 0.09179688 C-9.10235649 0.06514954 -9.10235649 0.06514954 -7.65132141 0.03796387 C-5.10044254 0.00143822 -2.55109792 -0.00679276 0 0 Z " fill="#8254E9" transform="translate(203,89)"/>
<path d="M0 0 C0.33 0 0.66 0 1 0 C0.94670532 1.0372522 0.94670532 1.0372522 0.89233398 2.09545898 C0.73534819 5.20922906 0.58631877 8.32332938 0.4375 11.4375 C0.38142578 12.52611328 0.32535156 13.61472656 0.26757812 14.73632812 C0.21923828 15.77080078 0.17089844 16.80527344 0.12109375 17.87109375 C0.0739624 18.82943115 0.02683105 19.78776855 -0.02172852 20.77514648 C-0.25991218 22.97347702 -0.25991218 22.97347702 1 24 C1.04080783 25.99958364 1.04254356 28.00045254 1 30 C-2.83759759 26.16240241 -3.13927154 20.35484958 -3.3125 15.125 C-3.22099833 9.76799318 -1.79269311 5.0152724 0 0 Z " fill="#6F4AD2" transform="translate(331,123)"/>
<path d="M0 0 C1.25189229 3.75567687 0.56835349 6.08467598 0 10 C-0.69134961 18.28083199 1.1363173 25.65900287 5 33 C2.5 31.25 2.5 31.25 0 29 C0 27.68 0 26.36 0 25 C-0.66 25 -1.32 25 -2 25 C-3.17426264 22.65147472 -3.11508173 21.26225935 -3.09765625 18.6484375 C-3.09443359 17.79765625 -3.09121094 16.946875 -3.08789062 16.0703125 C-3.07951172 15.18085938 -3.07113281 14.29140625 -3.0625 13.375 C-3.05798828 12.4778125 -3.05347656 11.580625 -3.04882812 10.65625 C-3.03702591 8.43743352 -3.02056155 6.21874982 -3 4 C-2.34 4 -1.68 4 -1 4 C-0.67 2.68 -0.34 1.36 0 0 Z " fill="#369366" transform="translate(596,117)"/>
<path d="M0 0 C-0.81404297 0.58007812 -0.81404297 0.58007812 -1.64453125 1.171875 C-2.71767578 1.95304687 -2.71767578 1.95304687 -3.8125 2.75 C-4.52019531 3.26046875 -5.22789062 3.7709375 -5.95703125 4.296875 C-9.96142195 7.63514334 -11.43076467 10.72305868 -12.6875 15.75 C-12.93886719 16.73484375 -13.19023437 17.7196875 -13.44921875 18.734375 C-13.63097656 19.48203125 -13.81273437 20.2296875 -14 21 C-14.33 21 -14.66 21 -15 21 C-15.144375 19.7625 -15.28875 18.525 -15.4375 17.25 C-15.71288372 14.91951392 -16.02400484 12.92598506 -16.75 10.6875 C-16.8325 10.130625 -16.915 9.57375 -17 9 C-15.6875 7.25 -15.6875 7.25 -14 6 C-13.34 6 -12.68 6 -12 6 C-11.21625 5.21625 -10.4325 4.4325 -9.625 3.625 C-4.5 -1.5 -4.5 -1.5 0 0 Z " fill="#2F9A70" transform="translate(522,109)"/>
<path d="M0 0 C4 4.33333333 4 4.33333333 4 7 C2.68 6.34 1.36 5.68 0 5 C0 4.34 0 3.68 0 3 C-0.99 3 -1.98 3 -3 3 C-3.33 3.66 -3.66 4.32 -4 5 C-6.97 4.505 -6.97 4.505 -10 4 C-10.33 4.99 -10.66 5.98 -11 7 C-17.93 6.505 -17.93 6.505 -25 6 C-25 5.67 -25 5.34 -25 5 C-20.71 5 -16.42 5 -12 5 C-12 4.34 -12 3.68 -12 3 C-10.75823305 2.29773859 -9.50614401 1.61370891 -8.25 0.9375 C-7.55390625 0.55464844 -6.8578125 0.17179688 -6.140625 -0.22265625 C-3.58225436 -1.1516996 -2.49502684 -1.02919857 0 0 Z " fill="#7956D6" transform="translate(461,150)"/>
<path d="M0 0 C0.66 0 1.32 0 2 0 C2.14518182 4.0829596 2.23403347 8.16525641 2.3125 12.25 C2.3753418 13.98830078 2.3753418 13.98830078 2.43945312 15.76171875 C2.56390832 24.37401805 2.56390832 24.37401805 -0.51953125 27.796875 C-1.33808594 28.19390625 -2.15664063 28.5909375 -3 29 C-3.12375 28.360625 -3.2475 27.72125 -3.375 27.0625 C-3.58125 26.381875 -3.7875 25.70125 -4 25 C-4.66 24.67 -5.32 24.34 -6 24 C-4.35 23.67 -2.7 23.34 -1 23 C-0.67 15.41 -0.34 7.82 0 0 Z " fill="#8452E9" transform="translate(379,87)"/>
<path d="M0 0 C8.81397715 3.38999121 14.88506793 10.96688858 19.3203125 19.0546875 C20 21 20 21 19 24 C17.00902154 21.01353231 16.05875074 18.40312738 15 15 C14.34 15 13.68 15 13 15 C12.773125 14.4225 12.54625 13.845 12.3125 13.25 C10.08951132 9.43916226 7.14211008 7.38070336 3 6 C1.3125 4.625 1.3125 4.625 0 3 C0 2.01 0 1.02 0 0 Z " fill="#3D926C" transform="translate(644,94)"/>
<path d="M0 0 C0.99 0.66 1.98 1.32 3 2 C2.50015973 6.18135612 0.27413341 8.04336009 -2.75 10.8125 C-3.61109375 11.62332031 -4.4721875 12.43414062 -5.359375 13.26953125 C-8 15 -8 15 -10.66015625 14.8828125 C-14.49290734 13.43673279 -17.13904693 10.86095307 -20 8 C-17.125 8.3125 -17.125 8.3125 -14 9 C-13.01 10.485 -13.01 10.485 -12 12 C-9.94074861 12.72382467 -9.94074861 12.72382467 -8 13 C-7.67 12.01 -7.34 11.02 -7 10 C-5.7934375 9.6596875 -5.7934375 9.6596875 -4.5625 9.3125 C-1.8760987 8.28848287 -1.8760987 8.28848287 -1.2265625 6.09765625 C-0.73789841 4.08280213 -0.36218128 2.04138542 0 0 Z " fill="#3F8C68" transform="translate(564,100)"/>
<path d="M0 0 C-1.59866085 1.90297206 -2.51866722 2.89923258 -4.98950195 3.41650391 C-6.10264771 3.44623291 -6.10264771 3.44623291 -7.23828125 3.4765625 C-8.46901367 3.52296875 -8.46901367 3.52296875 -9.72460938 3.5703125 C-11.00561523 3.59738281 -11.00561523 3.59738281 -12.3125 3.625 C-17.62975635 3.78773164 -22.76309993 3.95774583 -28 5 C-21.40086992 -1.59913008 -8.58015601 -0.34269854 0 0 Z " fill="#429B76" transform="translate(627,88)"/>
<path d="M0 0 C0.66 0 1.32 0 2 0 C2.6700834 2.12392506 3.33596797 4.24917524 4 6.375 C4.37125 7.55835938 4.7425 8.74171875 5.125 9.9609375 C6 13 6 13 6 15 C6.99 15.33 7.98 15.66 9 16 C9.33 17.65 9.66 19.3 10 21 C10.66 21 11.32 21 12 21 C12.33 22.32 12.66 23.64 13 25 C6.18265479 20.4551032 2.260335 13.3955518 0.40234375 5.44140625 C0.125 3.25 0.125 3.25 0 0 Z " fill="#3B8C6B" transform="translate(487,139)"/>
<path d="M0 0 C0.33 0 0.66 0 1 0 C1 9.57 1 19.14 1 29 C-2.3282731 30.66413655 -5.99733973 29.81867406 -9.625 29.5625 C-10.42679687 29.51029297 -11.22859375 29.45808594 -12.0546875 29.40429688 C-14.03679103 29.27451629 -16.01844499 29.13790265 -18 29 C-17.67 27.68 -17.34 26.36 -17 25 C-17 25.99 -17 26.98 -17 28 C-8.585 27.505 -8.585 27.505 0 27 C0 18.09 0 9.18 0 0 Z " fill="#6E51B4" transform="translate(396,140)"/>
<path d="M0 0 C5.32529778 4.28982321 7.43054216 9.40484658 9 16 C9.28805329 19.69897004 9.25758377 23.3008109 9 27 C8.34 27 7.68 27 7 27 C6.85304688 25.64068359 6.85304688 25.64068359 6.703125 24.25390625 C5.88964138 17.62681985 4.97719342 11.83123554 1.90234375 5.8671875 C0.9663083 3.93028297 0.45219162 2.09779616 0 0 Z " fill="#774DC2" transform="translate(464,116)"/>
<path d="M0 0 C5.61 0 11.22 0 17 0 C17.33 1.32 17.66 2.64 18 4 C18.37125 3.505 18.7425 3.01 19.125 2.5 C21.74694393 0.40244486 23.73842472 0.78256165 27 1 C24.33333333 2.33333333 21.66666667 3.66666667 19 5 C19 5.66 19 6.32 19 7 C16.03824877 6.38722388 14.61941217 5.74627478 12 4 C12 3.34 12 2.68 12 2 C8.04 1.67 4.08 1.34 0 1 C0 0.67 0 0.34 0 0 Z " fill="#7D4FDD" transform="translate(215,108)"/>
<path d="M0 0 C3.22551167 4.8382675 3.15900269 8.70934619 3.1875 14.5 C3.20167969 15.8096875 3.21585938 17.119375 3.23046875 18.46875 C3 22 3 22 1 26 C0.67 17.42 0.34 8.84 0 0 Z " fill="#3B916B" transform="translate(664,118)"/>
<path d="M0 0 C2.29679188 1.09442433 4.58704964 2.19986661 6.875 3.3125 C7.52597656 3.62123047 8.17695312 3.92996094 8.84765625 4.24804688 C12.19676398 5.88807385 13.89005879 6.83508818 16 10 C10.9867989 9.53365571 8.84558714 8.11309435 5 5 C2.37044148 3.83021509 -0.26917385 2.92570378 -3 2 C-2.01 1.34 -1.02 0.68 0 0 Z " fill="#379468" transform="translate(548,90)"/>
<path d="M0 0 C4.95 0.33 9.9 0.66 15 1 C15 1.33 15 1.66 15 2 C21.93 2.495 21.93 2.495 29 3 C29 3.33 29 3.66 29 4 C18.90240732 4.2999285 9.62930511 4.56326709 0 1 C0 0.67 0 0.34 0 0 Z " fill="#469370" transform="translate(601,172)"/>
<path d="M0 0 C0.66 0 1.32 0 2 0 C1.6875 1.9375 1.6875 1.9375 1 4 C0.01 4.33 -0.98 4.66 -2 5 C-3.07254351 7.26225382 -3.07254351 7.26225382 -4 10 C-5.4375 13.25 -5.4375 13.25 -7 16 C-7.99 16.33 -8.98 16.66 -10 17 C-8.10336534 10.36177869 -4.54626299 5.15243138 0 0 Z " fill="#368B69" transform="translate(499,100)"/>
<path d="M0 0 C0.33 0 0.66 0 1 0 C1.33 10.23 1.66 20.46 2 31 C1.01 31 0.02 31 -1 31 C-0.67 20.77 -0.34 10.54 0 0 Z " fill="#7D4EE3" transform="translate(316,135)"/>
<path d="M0 0 C0.66 0 1.32 0 2 0 C2.33773437 0.91523438 2.67546875 1.83046875 3.0234375 2.7734375 C3.46945312 3.96195313 3.91546875 5.15046875 4.375 6.375 C4.81585937 7.55835938 5.25671875 8.74171875 5.7109375 9.9609375 C6.7950342 13.04493446 6.7950342 13.04493446 9 15 C8.625 17.125 8.625 17.125 8 19 C7.03697644 17.44038638 6.07978996 15.87716775 5.125 14.3125 C4.59132813 13.44238281 4.05765625 12.57226562 3.5078125 11.67578125 C1.17112547 7.5290698 0 4.81269897 0 0 Z " fill="#3B8666" transform="translate(575,141)"/>
<path d="M0 0 C0.33 0 0.66 0 1 0 C1.12910853 6.74233419 0.797837 13.30386804 0 20 C-0.66 20 -1.32 20 -2 20 C-2.21133202 12.95559921 -2.07965362 6.75887425 0 0 Z " fill="#33856C" transform="translate(488,118)"/>
<path d="M0 0 C6.39969165 0.2723273 11.24234087 2.66308623 16 7 C16 7.99 16 8.98 16 10 C13.51577488 8.93533209 12.04957063 8.05665215 10.25 6 C7.055358 3.16031822 4.16520577 2.83304115 0 2 C0 1.34 0 0.68 0 0 Z " fill="#7150C9" transform="translate(447,107)"/>
<path d="M0 0 C0.33 0 0.66 0 1 0 C1.0272616 2.04159095 1.04651345 4.08328963 1.0625 6.125 C1.07410156 7.26195312 1.08570313 8.39890625 1.09765625 9.5703125 C1.005327 12.8129156 0.61389906 15.81932612 0 19 C-2 17 -2 17 -2.265625 14.35546875 C-2.26046875 13.31003906 -2.2553125 12.26460937 -2.25 11.1875 C-2.25773437 9.63095703 -2.25773437 9.63095703 -2.265625 8.04296875 C-1.99831735 4.9807237 -1.29090101 2.77133908 0 0 Z " fill="#7349D6" transform="translate(348,128)"/>
<path d="M0 0 C0.66 0.33 1.32 0.66 2 1 C-0.96647745 4.19249477 -4.04963636 6.4592987 -7.75 8.75 C-8.73484375 9.36359375 -9.7196875 9.9771875 -10.734375 10.609375 C-11.48203125 11.06828125 -12.2296875 11.5271875 -13 12 C-11.53072232 8.38270223 -9.60198385 6.6339522 -6.5 4.3125 C-5.7059375 3.71050781 -4.911875 3.10851562 -4.09375 2.48828125 C-2 1 -2 1 0 0 Z " fill="#3E906B" transform="translate(597,93)"/>
<path d="M0 0 C1.875 0.25 1.875 0.25 4 1 C4.309375 1.66 4.61875 2.32 4.9375 3 C5.288125 3.66 5.63875 4.32 6 5 C8.52733235 5.65555119 8.52733235 5.65555119 11 6 C11.33 6.66 11.66 7.32 12 8 C12.99 8.2165625 12.99 8.2165625 14 8.4375 C14.66 8.623125 15.32 8.80875 16 9 C16.33 9.99 16.66 10.98 17 12 C10.07970243 10.40300825 3.91804783 5.87707174 0 0 Z " fill="#3A926B" transform="translate(584,160)"/>
<path d="M0 0 C2.93200474 2.85276137 5.64315404 5.65079784 8 9 C6.02 9 4.04 9 2 9 C1.67 8.34 1.34 7.68 1 7 C-1.01669827 5.86649466 -1.01669827 5.86649466 -3 5 C-2.34 4.67 -1.68 4.34 -1 4 C-1 3.01 -1 2.02 -1 1 C-0.67 0.67 -0.34 0.34 0 0 Z " fill="#2C9E63" transform="translate(510,145)"/>
<path d="M0 0 C0.33 0 0.66 0 1 0 C1.82418386 16.09447929 1.82418386 16.09447929 -3 23 C-3.99 23.66 -4.98 24.32 -6 25 C-5.30058404 21.85262818 -4.23921302 18.97411124 -3 16 C-2.34 16 -1.68 16 -1 16 C-0.67 10.72 -0.34 5.44 0 0 Z " fill="#2C8E66" transform="translate(647,125)"/>
<path d="M0 0 C14.1627907 -0.41860465 14.1627907 -0.41860465 21 3 C21.33 3.99 21.66 4.98 22 6 C16.25 5.125 16.25 5.125 14 4 C14 3.34 14 2.68 14 2 C7.07 1.505 7.07 1.505 0 1 C0 0.67 0 0.34 0 0 Z " fill="#319467" transform="translate(615,104)"/>
<path d="M0 0 C1.32 0.33 2.64 0.66 4 1 C4.33 2.32 4.66 3.64 5 5 C9.29 5 13.58 5 18 5 C18 5.33 18 5.66 18 6 C13.05 6 8.1 6 3 6 C3 5.01 3 4.02 3 3 C0.69 3.33 -1.62 3.66 -4 4 C-3.01 3.67 -2.02 3.34 -1 3 C-0.67 2.01 -0.34 1.02 0 0 Z " fill="#7B4FDA" transform="translate(376,162)"/>
<path d="M0 0 C4.95 0 9.9 0 15 0 C15 2.97 15 5.94 15 9 C14.01 9.33 13.02 9.66 12 10 C12.33 7.03 12.66 4.06 13 1 C8.71 1 4.42 1 0 1 C0 0.67 0 0.34 0 0 Z " fill="#774DD9" transform="translate(286,142)"/>
<path d="M0 0 C0.99 0.33 1.98 0.66 3 1 C1.37660195 2.70884005 -0.29319053 4.37446717 -2 6 C-2.66 6 -3.32 6 -4 6 C-3.67 6.99 -3.34 7.98 -3 9 C-3.27769908 11.3406065 -3.60539977 13.67624308 -4 16 C-4.66 15.67 -5.32 15.34 -6 15 C-5.67 11.7 -5.34 8.4 -5 5 C-4.01 4.67 -3.02 4.34 -2 4 C-0.79117904 1.99983534 -0.79117904 1.99983534 0 0 Z " fill="#8653EB" transform="translate(337,118)"/>
<path d="M0 0 C5.95507399 0.3916035 10.62819824 1.37124595 16 4 C16 4.66 16 5.32 16 6 C10.63904723 4.41078475 5.29156027 2.81027062 0 1 C0 0.67 0 0.34 0 0 Z " fill="#419672" transform="translate(627,89)"/>
<path d="M0 0 C0.99 0 1.98 0 3 0 C3 4.62 3 9.24 3 14 C2.34 14 1.68 14 1 14 C0.67 9.38 0.34 4.76 0 0 Z " fill="#734DCA" transform="translate(203,89)"/>
<path d="M0 0 C0.33 0.99 0.66 1.98 1 3 C-2.37097383 4.49821059 -4.20442119 5 -8 5 C-8 4.34 -8 3.68 -8 3 C-9.65 3 -11.3 3 -13 3 C-13 2.67 -13 2.34 -13 2 C-12.22914063 1.93941406 -11.45828125 1.87882813 -10.6640625 1.81640625 C-9.15972656 1.69072266 -9.15972656 1.69072266 -7.625 1.5625 C-6.62726563 1.48128906 -5.62953125 1.40007812 -4.6015625 1.31640625 C-2.02072387 1.15034374 -2.02072387 1.15034374 0 0 Z " fill="#815FCF" transform="translate(294,154)"/>
<path d="M0 0 C4.95 0 9.9 0 15 0 C15 0.33 15 0.66 15 1 C6.89891697 3.54151625 6.89891697 3.54151625 3 3 C2.01 2.01 1.02 1.02 0 0 Z " fill="#603DDE" transform="translate(216,167)"/>
<path d="M0 0 C0.5465625 0.16242188 1.093125 0.32484375 1.65625 0.4921875 C4.3293535 1.07135992 6.7659306 1.13251118 9.5 1.125 C10.4384375 1.12757813 11.376875 1.13015625 12.34375 1.1328125 C14.7214263 1.01392868 16.72683096 0.67551722 19 0 C18.67 1.32 18.34 2.64 18 4 C15.37461716 3.85946128 12.74982573 3.71281053 10.125 3.5625 C9.37863281 3.52318359 8.63226562 3.48386719 7.86328125 3.44335938 C2.2265625 3.11328125 2.2265625 3.11328125 0 2 C0 1.34 0 0.68 0 0 Z " fill="#4E9477" transform="translate(611,156)"/>
<path d="M0 0 C2.35119399 3.52679099 2.21443452 5.02879485 2.125 9.1875 C2.10695313 10.27417969 2.08890625 11.36085937 2.0703125 12.48046875 C2.03550781 13.72763672 2.03550781 13.72763672 2 15 C-0.77458464 10.83812305 -1.41714582 6.3836904 -0.5625 1.5 C-0.376875 1.005 -0.19125 0.51 0 0 Z " fill="#7B57C2" transform="translate(259,145)"/>
<path d="M0 0 C0.99 0 1.98 0 3 0 C2.8125 2.875 2.8125 2.875 2 6 C-0.5625 7.375 -0.5625 7.375 -3 8 C-1.125 2.25 -1.125 2.25 0 0 Z " fill="#8A4FDB" transform="translate(375,146)"/>
<path d="M0 0 C0.99 0.33 1.98 0.66 3 1 C3.33 4.3 3.66 7.6 4 11 C3.01 11.66 2.02 12.32 1 13 C0.67 8.71 0.34 4.42 0 0 Z " fill="#8552EC" transform="translate(378,133)"/>
<path d="M0 0 C9.59453303 2.89066059 9.59453303 2.89066059 13 6 C10 7 10 7 7.7734375 6.07421875 C6.58621094 5.38779297 6.58621094 5.38779297 5.375 4.6875 C4.57835937 4.23761719 3.78171875 3.78773438 2.9609375 3.32421875 C1 2 1 2 0 0 Z " fill="#3A8C66" transform="translate(503,166)"/>
<path d="M0 0 C0.33 0.99 0.66 1.98 1 3 C-1 5 -1 5 -3.8203125 5.1953125 C-4.91085937 5.17210937 -6.00140625 5.14890625 -7.125 5.125 C-8.22070312 5.10695312 -9.31640625 5.08890625 -10.4453125 5.0703125 C-11.28835938 5.04710937 -12.13140625 5.02390625 -13 5 C-12.67 4.34 -12.34 3.68 -12 3 C-10.0390625 2.65625 -10.0390625 2.65625 -7.625 2.5 C-4.10348536 2.27058537 -3.07060704 2.04707136 0 0 Z " fill="#7A5EBD" transform="translate(372,150)"/>
<path d="M0 0 C1.2065625 0.0309375 1.2065625 0.0309375 2.4375 0.0625 C0.4575 1.0525 0.4575 1.0525 -1.5625 2.0625 C-1.253125 2.805 -0.94375 3.5475 -0.625 4.3125 C0.2469925 6.56942176 0.91417007 8.7075153 1.4375 11.0625 C0.7775 11.0625 0.1175 11.0625 -0.5625 11.0625 C-4.63397863 5.94406973 -4.63397863 5.94406973 -4.375 2.75 C-3.11443622 0.13190599 -3.05239754 0.07444872 0 0 Z " fill="#764FC8" transform="translate(429.5625,141.9375)"/>
<path d="M0 0 C0.66 1.65 1.32 3.3 2 5 C-4.15234375 4.4140625 -4.15234375 4.4140625 -6 4 C-6.33 3.34 -6.66 2.68 -7 2 C-4.35261084 0.5393715 -3.10551666 0 0 0 Z " fill="#289C66" transform="translate(607,168)"/>
<path d="M0 0 C-0.33 0.66 -0.66 1.32 -1 2 C-1.33 2 -1.66 2 -2 2 C-2.99 2.33 -3.98 2.66 -5 3 C-6.32 3 -7.64 3 -9 3 C-9 1.68 -9 0.36 -9 -1 C-5.23375329 -2.25541557 -3.62811066 -1.37061958 0 0 Z " fill="#3A9F74" transform="translate(524,156)"/>
<path d="M0 0 C0.33 0.66 0.66 1.32 1 2 C1.66 2 2.32 2 3 2 C3.33 4.97 3.66 7.94 4 11 C3.01 11 2.02 11 1 11 C-0.20272819 8.59454362 -0.10071472 7.05003047 -0.0625 4.375 C-0.05347656 3.55773437 -0.04445313 2.74046875 -0.03515625 1.8984375 C-0.02355469 1.27195312 -0.01195312 0.64546875 0 0 Z " fill="#7048D3" transform="translate(315,124)"/>
<path d="M0 0 C5.84615385 5.53846154 5.84615385 5.53846154 7 9 C6.67 9.99 6.34 10.98 6 12 C5 10.33333333 4 8.66666667 3 7 C2.443125 6.113125 1.88625 5.22625 1.3125 4.3125 C0 2 0 2 0 0 Z " fill="#6D4EBC" transform="translate(464,116)"/>
<path d="M0 0 C0.66 0.33 1.32 0.66 2 1 C0.35 2.98 -1.3 4.96 -3 7 C-4.65 6.67 -6.3 6.34 -8 6 C-5.38485683 3.87961365 -2.80362384 1.86908256 0 0 Z " fill="#40946D" transform="translate(509,93)"/>
<path d="M0 0 C0 0.99 0 1.98 0 3 C-6.93 2.505 -6.93 2.505 -14 2 C-14 1.67 -14 1.34 -14 1 C-9.23692563 0.04738513 -4.8333472 -0.08333357 0 0 Z " fill="#7554CF" transform="translate(394,83)"/>
<path d="M0 0 C0.33 0 0.66 0 1 0 C1 3.63 1 7.26 1 11 C0.01 11 -0.98 11 -2 11 C-1.85957123 9.35369672 -1.71250671 7.70795821 -1.5625 6.0625 C-1.48128906 5.14597656 -1.40007812 4.22945312 -1.31640625 3.28515625 C-1 1 -1 1 0 0 Z " fill="#7E56C0" transform="translate(378,135)"/>
<path d="M0 0 C0.33 0.66 0.66 1.32 1 2 C-1.19621632 7.54833597 -1.19621632 7.54833597 -4.11328125 9.1875 C-4.73589844 9.455625 -5.35851562 9.72375 -6 10 C-5.38003922 8.70590711 -4.75383647 7.41480327 -4.125 6.125 C-3.77695312 5.40570313 -3.42890625 4.68640625 -3.0703125 3.9453125 C-2 2 -2 2 0 0 Z " fill="#3D8B6A" transform="translate(583,105)"/>
<path d="M0 0 C0.99 0.66 1.98 1.32 3 2 C2.4409112 5.24271506 1.5867822 6.93057424 -1 9 C-1.66 9 -2.32 9 -3 9 C-2.690625 8.443125 -2.38125 7.88625 -2.0625 7.3125 C-0.94238179 4.87459567 -0.43962636 2.63775814 0 0 Z " fill="#6F4CB4" transform="translate(465,156)"/>
<path d="M0 0 C3.17538332 0.34021964 4.02276865 1.02466604 6.25 3.4375 C8 6 8 6 8 8 C6.68 7.34 5.36 6.68 4 6 C4 5.34 4 4.68 4 4 C3.34 4 2.68 4 2 4 C2 3.01 2 2.02 2 1 C1.34 0.67 0.68 0.34 0 0 Z " fill="#7C57C2" transform="translate(457,149)"/>
<path d="M0 0 C0.66 0 1.32 0 2 0 C3.7143618 1.95927063 5.38405168 3.95880212 7 6 C6.34 6.66 5.68 7.32 5 8 C5 7.34 5 6.68 5 6 C3.68 5.67 2.36 5.34 1 5 C0.67 3.35 0.34 1.7 0 0 Z " fill="#8654F0" transform="translate(459,153)"/>
<path d="M0 0 C0.33 0 0.66 0 1 0 C1.28571429 7.42857143 1.28571429 7.42857143 -1 11 C-1.33 10.67 -1.66 10.34 -2 10 C-1.29411765 2.58823529 -1.29411765 2.58823529 0 0 Z " fill="#7A54C6" transform="translate(331,123)"/>
<path d="M0 0 C1.65 0 3.3 0 5 0 C5 2.31 5 4.62 5 7 C4.34 7 3.68 7 3 7 C1.79371992 4.66785852 0.8345262 2.50357861 0 0 Z " fill="#7F51E7" transform="translate(246,107)"/>
<path d="M0 0 C0.598125 0.226875 1.19625 0.45375 1.8125 0.6875 C-0.52083333 3.02083333 -2.85416667 5.35416667 -5.1875 7.6875 C-5.41803497 4.84423536 -5.54653101 3.22604651 -3.9375 0.8125 C-2.1875 -0.3125 -2.1875 -0.3125 0 0 Z " fill="#7552C2" transform="translate(354.1875,123.3125)"/>
<path d="M0 0 C-6.2 4.13333333 -6.2 4.13333333 -9.25 3.625 C-9.8275 3.41875 -10.405 3.2125 -11 3 C-6.86621405 0.2441427 -4.94796454 -0.10756445 0 0 Z " fill="#6E49B9" transform="translate(277,122)"/>
<path d="M0 0 C-1.29017414 0.98113243 -2.58219106 1.95984199 -3.875 2.9375 C-4.59429688 3.48277344 -5.31359375 4.02804688 -6.0546875 4.58984375 C-8 6 -8 6 -10 7 C-9.02640613 3.72518425 -8.30933359 2.23794891 -5.5625 0.125 C-3 -1 -3 -1 0 0 Z " fill="#48916F" transform="translate(522,109)"/>
<path d="M0 0 C0 0.33 0 0.66 0 1 C-1.65 1 -3.3 1 -5 1 C-5 1.66 -5 2.32 -5 3 C-7.64 3 -10.28 3 -13 3 C-8.48332093 -0.01111938 -5.3360009 -0.10067926 0 0 Z " fill="#795AC1" transform="translate(251,106)"/>
<path d="M0 0 C0.66 0.99 1.32 1.98 2 3 C-0.94386623 4.47193312 -3.37390036 3.84936173 -6.625 3.5625 C-7.81351562 3.46066406 -9.00203125 3.35882813 -10.2265625 3.25390625 C-11.14179688 3.17011719 -12.05703125 3.08632812 -13 3 C-13 2.67 -13 2.34 -13 2 C-8.71 2 -4.42 2 0 2 C0 1.34 0 0.68 0 0 Z " fill="#814CDF" transform="translate(449,153)"/>
<path d="M0 0 C0.66 0 1.32 0 2 0 C2.33 3.3 2.66 6.6 3 10 C-0.00617269 6.99382731 0.40414684 4.17618402 0 0 Z " fill="#7657C4" transform="translate(329,143)"/>
<path d="M0 0 C0.66 0 1.32 0 2 0 C2.66 2.64 3.32 5.28 4 8 C3.01 8.495 3.01 8.495 2 9 C0.50178941 5.62902617 0 3.79557881 0 0 Z " fill="#6947CA" transform="translate(408,145)"/>
<path d="M0 0 C0.9075 0.103125 1.815 0.20625 2.75 0.3125 C-1.25 2.3125 -1.25 2.3125 -5.25 4.3125 C-5.25 4.9725 -5.25 5.6325 -5.25 6.3125 C-5.91 5.9825 -6.57 5.6525 -7.25 5.3125 C-4.05 0.38942308 -4.05 0.38942308 0 0 Z " fill="#734ECC" transform="translate(239.25,108.6875)"/>
<path d="M0 0 C3.625 -0.1875 3.625 -0.1875 7 0 C7 0.66 7 1.32 7 2 C2.545 2.495 2.545 2.495 -2 3 C-1.34 2.01 -0.68 1.02 0 0 Z " fill="#478F6E" transform="translate(524,105)"/>
<path d="M0 0 C3.3 0 6.6 0 10 0 C9.67 0.66 9.34 1.32 9 2 C5.9375 2.625 5.9375 2.625 3 3 C3 2.34 3 1.68 3 1 C2.01 0.67 1.02 0.34 0 0 Z " fill="#299D59" transform="translate(528,104)"/>
<path d="M0 0 C0.99 0.33 1.98 0.66 3 1 C2.67 2.32 2.34 3.64 2 5 C0.68 5 -0.64 5 -2 5 C-2 4.01 -2 3.02 -2 2 C-1.34 2 -0.68 2 0 2 C0 1.34 0 0.68 0 0 Z " fill="#8D48E7" transform="translate(297,151)"/>
<path d="M0 0 C3.36720387 1.39332574 4.9859524 2.9789286 7 6 C5.02 6 3.04 6 1 6 C0.67 4.02 0.34 2.04 0 0 Z " fill="#40936F" transform="translate(511,148)"/>
</svg>
